<svg width="357" height="264" viewBox="0 0 357 264" fill="none" xmlns="http://www.w3.org/2000/svg">
<path d="M321.229 245.252H297.581V245.43H321.229V245.252Z" fill="#EBEBEB"/>
<path d="M236.491 247.194H230.286V247.372H236.491V247.194Z" fill="#EBEBEB"/>
<path d="M296.867 238.626H283.165V238.804H296.867V238.626Z" fill="#EBEBEB"/>
<path d="M68.2941 239.825H37.4564V240.004H68.2941V239.825Z" fill="#EBEBEB"/>
<path d="M79.1755 239.825H74.6558V240.004H79.1755V239.825Z" fill="#EBEBEB"/>
<path d="M160.757 242.839H93.8696V243.017H160.757V242.839Z" fill="#EBEBEB"/>
<path d="M170.218 201.919H32.3442C31.2629 201.919 30.2259 201.49 29.4614 200.725C28.6968 199.961 28.2673 198.924 28.2673 197.842V4.04124C28.2767 2.96617 28.7104 1.93833 29.4739 1.18146C30.2375 0.424589 31.2691 -4.12163e-05 32.3442 3.00062e-09H170.218C170.753 3.00062e-09 171.283 0.105452 171.778 0.310338C172.272 0.515223 172.722 0.815529 173.1 1.19411C173.479 1.57269 173.779 2.02213 173.984 2.51676C174.189 3.0114 174.295 3.54155 174.295 4.07694V197.842C174.295 198.378 174.189 198.908 173.984 199.402C173.779 199.897 173.479 200.347 173.1 200.725C172.722 201.104 172.272 201.404 171.778 201.609C171.283 201.814 170.753 201.919 170.218 201.919ZM32.3442 0.142801C31.3108 0.144688 30.3204 0.556021 29.5897 1.28671C28.859 2.0174 28.4476 3.00789 28.4458 4.04124V197.842C28.4476 198.876 28.859 199.866 29.5897 200.597C30.3204 201.327 31.3108 201.739 32.3442 201.741H170.218C171.251 201.739 172.241 201.327 172.972 200.597C173.703 199.866 174.114 198.876 174.116 197.842V4.04124C174.114 3.00789 173.703 2.0174 172.972 1.28671C172.241 0.556021 171.251 0.144688 170.218 0.142801H32.3442Z" fill="#EBEBEB"/>
<path d="M324.656 201.919H186.782C185.701 201.919 184.664 201.49 183.9 200.725C183.135 199.961 182.705 198.924 182.705 197.842V4.04124C182.715 2.96617 183.149 1.93833 183.912 1.18146C184.676 0.424589 185.707 -4.12163e-05 186.782 3.00062e-09H324.656C325.737 3.00063e-09 326.774 0.429534 327.539 1.19411C328.303 1.95868 328.733 2.99567 328.733 4.07694V197.842C328.733 198.924 328.303 199.961 327.539 200.725C326.774 201.49 325.737 201.919 324.656 201.919ZM186.782 0.142801C185.749 0.144688 184.759 0.556021 184.028 1.28671C183.297 2.0174 182.886 3.00789 182.884 4.04124V197.842C182.886 198.876 183.297 199.866 184.028 200.597C184.759 201.327 185.749 201.739 186.782 201.741H324.656C325.689 201.739 326.68 201.327 327.41 200.597C328.141 199.866 328.552 198.876 328.554 197.842V4.04124C328.552 3.00789 328.141 2.0174 327.41 1.28671C326.68 0.556021 325.689 0.144688 324.656 0.142801H186.782Z" fill="#EBEBEB"/>
<path d="M357 233.764H0V233.942H357V233.764Z" fill="#EBEBEB"/>
<path d="M282.958 196.736H300.987C301.757 196.736 302.52 196.586 303.232 196.291C303.944 195.997 304.591 195.566 305.136 195.021C305.681 194.477 306.114 193.83 306.409 193.118C306.704 192.407 306.856 191.644 306.856 190.874V164.52C306.856 164.236 306.743 163.963 306.542 163.763C306.341 163.562 306.069 163.449 305.785 163.449C305.501 163.449 305.228 163.562 305.027 163.763C304.827 163.963 304.714 164.236 304.714 164.52V190.874C304.712 191.861 304.318 192.807 303.62 193.504C302.921 194.202 301.974 194.594 300.987 194.594H282.958V196.736Z" fill="#E0E0E0"/>
<path d="M277.803 222.004V197.457L276.375 197C275.584 196.752 274.893 196.258 274.403 195.59C273.912 194.923 273.648 194.116 273.648 193.287H287.242C287.242 194.116 286.978 194.923 286.487 195.59C285.996 196.258 285.305 196.752 284.515 197L283.087 197.457V222.004L294.382 227.052V229.194L280.438 224.325L266.501 229.194V227.052L277.803 222.004Z" fill="#E0E0E0"/>
<path d="M262.659 194.594H298.224C299.247 194.594 300.228 194.188 300.952 193.465C301.677 192.742 302.084 191.761 302.086 190.738C302.086 189.714 301.679 188.731 300.955 188.007C300.231 187.282 299.248 186.875 298.224 186.875H262.659C261.635 186.875 260.652 187.282 259.928 188.007C259.203 188.731 258.796 189.714 258.796 190.738C258.798 191.761 259.206 192.742 259.93 193.465C260.655 194.188 261.636 194.594 262.659 194.594Z" fill="#F0F0F0"/>
<path d="M304.5 173.795L306.42 146.37C306.491 145.351 306.155 144.345 305.486 143.573C304.817 142.801 303.869 142.325 302.85 142.25C301.832 142.18 300.827 142.516 300.056 143.185C299.285 143.854 298.811 144.802 298.738 145.82L296.817 173.266C296.744 174.286 297.08 175.293 297.749 176.065C298.418 176.838 299.367 177.313 300.387 177.386C301.408 177.455 302.415 177.115 303.187 176.442C303.958 175.768 304.43 174.816 304.5 173.795Z" fill="#EBEBEB"/>
<path d="M291.947 230.729C291.947 231.212 292.091 231.685 292.359 232.086C292.628 232.488 293.01 232.801 293.457 232.986C293.903 233.17 294.394 233.218 294.868 233.124C295.342 233.029 295.777 232.795 296.119 232.453C296.46 232.111 296.692 231.675 296.785 231.201C296.879 230.727 296.829 230.236 296.643 229.79C296.457 229.344 296.143 228.963 295.741 228.695C295.338 228.428 294.865 228.286 294.382 228.287C293.736 228.289 293.117 228.547 292.66 229.005C292.204 229.463 291.947 230.083 291.947 230.729Z" fill="#E0E0E0"/>
<path d="M264.059 230.729C264.059 231.212 264.202 231.684 264.47 232.086C264.738 232.487 265.12 232.8 265.566 232.985C266.012 233.17 266.503 233.218 266.977 233.124C267.451 233.03 267.886 232.797 268.227 232.456C268.569 232.114 268.801 231.679 268.895 231.205C268.99 230.732 268.941 230.241 268.756 229.795C268.572 229.348 268.259 228.967 267.857 228.699C267.456 228.43 266.983 228.287 266.5 228.287C265.853 228.287 265.232 228.544 264.774 229.002C264.316 229.46 264.059 230.081 264.059 230.729Z" fill="#E0E0E0"/>
<path d="M71.5856 196.736H53.55C52.7796 196.736 52.0166 196.586 51.3045 196.291C50.5925 195.997 49.9455 195.566 49.4004 195.021C48.8553 194.477 48.4229 193.83 48.1278 193.118C47.8328 192.407 47.6809 191.644 47.6809 190.874V164.52C47.6809 164.236 47.7938 163.963 47.9946 163.763C48.1955 163.562 48.4679 163.449 48.7519 163.449C49.036 163.449 49.3084 163.562 49.5092 163.763C49.7101 163.963 49.8229 164.236 49.8229 164.52V190.874C49.8248 191.861 50.2183 192.807 50.9171 193.504C51.6158 194.202 52.5628 194.594 53.55 194.594H71.5785L71.5856 196.736Z" fill="#E0E0E0"/>
<path d="M76.7407 222.004V197.457L78.1687 197C78.9594 196.752 79.6504 196.258 80.1409 195.59C80.6315 194.923 80.8961 194.116 80.8962 193.287H67.3302C67.3303 194.116 67.5949 194.923 68.0854 195.59C68.576 196.258 69.267 196.752 70.0577 197L71.4857 197.457V222.004L60.1616 227.052V229.194L74.1061 224.325L88.0505 229.194V227.052L76.7407 222.004Z" fill="#E0E0E0"/>
<path d="M91.8847 194.594H56.3203C55.2971 194.594 54.3157 194.188 53.5915 193.465C52.8673 192.742 52.4595 191.761 52.4576 190.738C52.4576 189.714 52.8645 188.731 53.5889 188.007C54.3134 187.282 55.2959 186.875 56.3203 186.875H91.8847C92.9091 186.875 93.8916 187.282 94.616 188.007C95.3404 188.731 95.7474 189.714 95.7474 190.738C95.7455 191.761 95.3377 192.742 94.6135 193.465C93.8893 194.188 92.9079 194.594 91.8847 194.594Z" fill="#F0F0F0"/>
<path d="M50.0443 173.795L48.1236 146.37C48.0529 145.351 48.3888 144.345 49.0579 143.573C49.7269 142.801 50.6747 142.325 51.6936 142.25C52.7121 142.18 53.717 142.516 54.488 143.185C55.259 143.854 55.7331 144.802 55.8062 145.82L57.7269 173.266C57.7996 174.286 57.4643 175.293 56.7949 176.065C56.1254 176.838 55.1765 177.313 54.1569 177.386C53.1354 177.455 52.1284 177.115 51.3573 176.442C50.5861 175.768 50.1139 174.816 50.0443 173.795Z" fill="#EBEBEB"/>
<path d="M62.5964 230.729C62.5964 231.212 62.453 231.685 62.1843 232.086C61.9157 232.488 61.5339 232.801 61.0873 232.986C60.6407 233.17 60.1493 233.218 59.6755 233.124C59.2016 233.029 58.7665 232.795 58.4253 232.453C58.0841 232.111 57.8521 231.675 57.7587 231.201C57.6653 230.727 57.7146 230.236 57.9005 229.79C58.0865 229.344 58.4006 228.963 58.8031 228.695C59.2056 228.428 59.6784 228.286 60.1616 228.287C60.808 228.289 61.4273 228.547 61.8837 229.005C62.3401 229.463 62.5964 230.083 62.5964 230.729Z" fill="#E0E0E0"/>
<path d="M90.4852 230.729C90.4852 231.212 90.3418 231.685 90.0732 232.086C89.8046 232.488 89.4228 232.801 88.9761 232.986C88.5295 233.17 88.0382 233.218 87.5643 233.124C87.0904 233.029 86.6554 232.795 86.3141 232.453C85.9729 232.111 85.7409 231.675 85.6475 231.201C85.5541 230.727 85.6035 230.236 85.7894 229.79C85.9753 229.344 86.2894 228.963 86.6919 228.695C87.0944 228.428 87.5672 228.286 88.0505 228.287C88.6969 228.289 89.3161 228.547 89.7725 229.005C90.2289 229.463 90.4852 230.083 90.4852 230.729Z" fill="#E0E0E0"/>
<path d="M148.205 233.971H134.275L132.847 207.567H149.633L148.205 233.971Z" fill="#EBEBEB"/>
<path d="M137.488 233.971H131.776V232.8L137.488 232.086V233.971Z" fill="#E0E0E0"/>
<path d="M134.946 205.425H147.484C148.052 205.425 148.597 205.651 148.998 206.052C149.4 206.454 149.626 206.999 149.626 207.567H132.847C132.847 206.999 133.073 206.454 133.474 206.052C133.876 205.651 134.421 205.425 134.989 205.425H134.946Z" fill="#E0E0E0"/>
<path d="M119.638 165.498H97.3539V162.828L119.638 161.4V165.498Z" fill="#E0E0E0"/>
<path d="M152.603 168.218H86.6796V177.343H152.603V168.218Z" fill="#F0F0F0"/>
<path d="M166.269 165.498H73.2493V170.939H166.269V165.498Z" fill="#FAFAFA"/>
<path d="M157.63 233.971H161.828L154.56 170.939H149.633L157.63 233.971Z" fill="#E6E6E6"/>
<path d="M89.8855 170.939H84.9589L77.6832 233.971H81.8887L89.8855 170.939Z" fill="#E6E6E6"/>
<path d="M142.215 164.142C140.311 154.683 138.407 145.225 136.503 135.767C136.224 134.411 134.161 134.989 134.432 136.331L139.873 163.356H128.092C127.808 163.356 127.535 163.469 127.334 163.67C127.133 163.871 127.021 164.143 127.021 164.427C127.021 164.711 127.133 164.984 127.334 165.184C127.535 165.385 127.808 165.498 128.092 165.498H141.179C141.343 165.494 141.504 165.454 141.65 165.38C141.796 165.305 141.924 165.199 142.023 165.069C142.122 164.938 142.191 164.787 142.224 164.627C142.258 164.466 142.254 164.301 142.215 164.142Z" fill="#E0E0E0"/>
<path d="M128.877 156.53L132.547 104.058C133.901 105.028 134.985 106.329 135.693 107.836C136.402 109.344 136.713 111.008 136.595 112.669L134.089 148.569C133.972 150.231 133.431 151.834 132.519 153.228C131.607 154.621 130.353 155.758 128.877 156.53Z" fill="#FAFAFA"/>
<path d="M157.473 150.247H151.504C150.36 150.247 149.433 151.174 149.433 152.318V163.428C149.433 164.571 150.36 165.498 151.504 165.498H157.473C158.616 165.498 159.543 164.571 159.543 163.428V152.318C159.543 151.174 158.616 150.247 157.473 150.247Z" fill="#F5F5F5"/>
<path d="M153.431 144.564C151.854 144.564 150.575 144.956 150.575 145.442C150.575 145.927 151.861 145.27 153.431 145.27C153.639 145.27 153.838 145.27 154.038 145.27V148.733H154.938V145.406C155.752 145.563 156.287 145.72 156.287 145.406C156.287 144.942 155.009 144.564 153.431 144.564Z" fill="#E0E0E0"/>
<path d="M156.095 147.634H152.875V150.854H156.095V147.634Z" fill="#F0F0F0"/>
<path d="M201.941 177.343H267.864V168.218H201.941V177.343Z" fill="#F0F0F0"/>
<path d="M188.282 170.939H281.302V165.498H188.282V170.939Z" fill="#FAFAFA"/>
<path d="M196.914 233.971H192.716L199.984 170.939H204.911L196.914 233.971Z" fill="#E6E6E6"/>
<path d="M264.666 170.939H269.585L276.861 233.971H272.655L264.666 170.939Z" fill="#E6E6E6"/>
<path d="M248.843 165.498H271.127V162.828L248.843 161.4V165.498Z" fill="#E0E0E0"/>
<path d="M204.011 117.603V165.498H207.103L207.817 161.214C207.948 160.463 208.34 159.781 208.924 159.29C209.507 158.799 210.246 158.53 211.008 158.529H239.833C240.595 158.53 241.334 158.799 241.917 159.29C242.501 159.781 242.893 160.463 243.024 161.214L243.738 165.498H246.83V117.603H204.011Z" fill="#F5F5F5"/>
<path d="M217.863 164.142C219.767 154.683 221.671 145.225 223.575 135.767C223.853 134.411 225.917 134.989 225.645 136.331L220.205 163.356H231.986C232.27 163.356 232.542 163.469 232.743 163.67C232.944 163.871 233.057 164.143 233.057 164.427C233.057 164.711 232.944 164.984 232.743 165.184C232.542 165.385 232.27 165.498 231.986 165.498H218.898C218.734 165.494 218.573 165.454 218.427 165.38C218.281 165.305 218.154 165.199 218.054 165.069C217.955 164.938 217.886 164.787 217.853 164.627C217.82 164.466 217.823 164.301 217.863 164.142Z" fill="#E0E0E0"/>
<path d="M231.2 156.53L227.53 104.058C226.176 105.028 225.093 106.329 224.384 107.836C223.675 109.344 223.365 111.008 223.482 112.669L225.988 148.569C226.104 150.231 226.644 151.835 227.557 153.229C228.469 154.623 229.724 155.759 231.2 156.53Z" fill="#E0E0E0"/>
<path d="M155.409 66.3591H38.4346V137.638H155.409V66.3591Z" fill="#EBEBEB"/>
<path d="M156.28 66.3306H155.424V137.609H156.28V66.3306Z" fill="#E0E0E0"/>
<path d="M42.6829 69.4508H41.9761V133.589H42.6829V69.4508Z" fill="#E0E0E0"/>
<path d="M151.596 69.4508H41.9047V133.589H151.596V69.4508Z" fill="white"/>
<path d="M80.7605 97.7037V100.76H87.8863V97.7037H80.7605Z" fill="#F5F5F5"/>
<path d="M82.1528 120.702V123.079H89.2786V120.702H82.1528Z" fill="#F5F5F5"/>
<path d="M83.3095 96.7041H60.1616V129.234H83.3095V96.7041Z" fill="#F0F0F0"/>
<path d="M80.5535 125.957V128.334H87.6792V125.957H80.5535Z" fill="#F5F5F5"/>
<path d="M81.7387 104.208V106.586H88.8644V104.208H81.7387Z" fill="#F5F5F5"/>
<path d="M80.1751 110.113V112.491H87.3008V110.113H80.1751Z" fill="#F5F5F5"/>
<path d="M78.6685 100.703H62.8891V103.501H78.6685V100.703Z" fill="#E6E6E6"/>
<path d="M78.9184 112.662H63.139L62.8891 111.391H78.6614L78.9184 112.662Z" fill="#E6E6E6"/>
<path d="M68.4869 106.3H62.8891V109.099H68.4869V106.3Z" fill="#E6E6E6"/>
<path d="M116.161 90.8279H107.121V103.808H116.161V90.8279Z" fill="#F5F5F5"/>
<path d="M56.2275 111.398H47.1883V124.379H56.2275V111.398Z" fill="#F5F5F5"/>
<path d="M57.4556 74.0989H48.4163V83.1381H57.4556V74.0989Z" fill="#F5F5F5"/>
<path d="M100.31 115.539H91.2706V124.579H100.31V115.539Z" fill="#F5F5F5"/>
<path d="M144.706 91.949H121.559V124.479H144.706V91.949Z" fill="#F5F5F5"/>
<path d="M141.358 96.6542H124.729V97.0112H141.358V96.6542Z" fill="#E0E0E0"/>
<path d="M133.218 97.004H132.861V121.094H133.218V97.004Z" fill="#E0E0E0"/>
<path d="M140.858 97.004H140.501V121.094H140.858V97.004Z" fill="#E0E0E0"/>
<path d="M126.435 97.004H126.078V121.094H126.435V97.004Z" fill="#E0E0E0"/>
<path d="M125.243 97.004H124.886V121.094H125.243V97.004Z" fill="#E0E0E0"/>
<path d="M140.501 98.2749H125.064V98.6319H140.501V98.2749Z" fill="#E0E0E0"/>
<path d="M175.059 263.259C251.515 263.259 313.496 259.64 313.496 255.176C313.496 250.713 251.515 247.094 175.059 247.094C98.6017 247.094 36.6211 250.713 36.6211 255.176C36.6211 259.64 98.6017 263.259 175.059 263.259Z" fill="#F5F5F5"/>
<path d="M196.493 107.15C196.493 111.356 194.823 115.39 191.851 118.366C188.88 121.342 184.848 123.016 180.642 123.022H174.873V138.145H159.222V144.349C159.134 148.5 157.423 152.45 154.457 155.354C151.491 158.259 147.505 159.885 143.353 159.885C139.202 159.885 135.216 158.259 132.25 155.354C129.283 152.45 127.573 148.5 127.485 144.349V138.145H112.869V123.022H106.229C102.019 123.022 97.9822 121.35 95.0056 118.373C92.0289 115.397 90.3567 111.359 90.3567 107.15C90.3567 102.94 92.0289 98.9032 95.0056 95.9265C97.9822 92.9499 102.019 91.2777 106.229 91.2777H112.869V76.1552H127.992V82.8239C127.947 84.9361 128.324 87.036 129.101 89.0005C129.879 90.965 131.041 92.7546 132.519 94.2642C133.997 95.7739 135.761 96.9733 137.709 97.7921C139.656 98.611 141.748 99.0328 143.86 99.0328C145.973 99.0328 148.064 98.611 150.012 97.7921C151.96 96.9733 153.724 95.7739 155.202 94.2642C156.68 92.7546 157.842 90.965 158.619 89.0005C159.396 87.036 159.774 84.9361 159.729 82.8239V76.1837H174.851V91.3062H180.642C184.843 91.3119 188.87 92.9827 191.841 95.9526C194.813 98.9224 196.485 102.949 196.493 107.15Z" fill="#31B5A7"/>
<g opacity="0.5">
<path opacity="0.5" d="M196.493 107.15C196.493 111.356 194.823 115.39 191.851 118.366C188.88 121.342 184.848 123.016 180.642 123.022H174.873V138.145H159.222V144.349C159.134 148.5 157.423 152.45 154.457 155.354C151.491 158.259 147.505 159.885 143.353 159.885C139.202 159.885 135.216 158.259 132.25 155.354C129.283 152.45 127.573 148.5 127.485 144.349V138.145H112.869V123.022H106.229C102.019 123.022 97.9822 121.35 95.0056 118.373C92.0289 115.397 90.3567 111.359 90.3567 107.15C90.3567 102.94 92.0289 98.9032 95.0056 95.9265C97.9822 92.9499 102.019 91.2777 106.229 91.2777H112.869V76.1552H127.992V82.8239C127.947 84.9361 128.324 87.036 129.101 89.0005C129.879 90.965 131.041 92.7546 132.519 94.2642C133.997 95.7739 135.761 96.9733 137.709 97.7921C139.656 98.611 141.748 99.0328 143.86 99.0328C145.973 99.0328 148.064 98.611 150.012 97.7921C151.96 96.9733 153.724 95.7739 155.202 94.2642C156.68 92.7546 157.842 90.965 158.619 89.0005C159.396 87.036 159.774 84.9361 159.729 82.8239V76.1837H174.851V91.3062H180.642C184.843 91.3119 188.87 92.9827 191.841 95.9526C194.813 98.9224 196.485 102.949 196.493 107.15Z" fill="white"/>
</g>
<path d="M180.699 122.944H174.059V138.066H236.048V122.944H241.81C246.02 122.944 250.057 121.271 253.034 118.295C256.01 115.318 257.683 111.281 257.683 107.071C257.683 102.862 256.01 98.8246 253.034 95.848C250.057 92.8714 246.02 91.1991 241.81 91.1991H236.048V76.0766H220.926V69.4364C220.926 65.2269 219.254 61.1897 216.277 58.2131C213.3 55.2365 209.263 53.5642 205.054 53.5642C200.844 53.5642 196.807 55.2365 193.83 58.2131C190.854 61.1897 189.181 65.2269 189.181 69.4364V76.0766H174.059V91.1991H180.699C184.909 91.1991 188.946 92.8714 191.922 95.848C194.899 98.8246 196.571 102.862 196.571 107.071C196.571 111.281 194.899 115.318 191.922 118.295C188.946 121.271 184.909 122.944 180.699 122.944Z" fill="#31B5A7"/>
<g opacity="0.3">
<path opacity="0.3" d="M180.699 122.944H174.059V138.066H236.048V122.944H241.81C246.02 122.944 250.057 121.271 253.034 118.295C256.01 115.318 257.683 111.281 257.683 107.071C257.683 102.862 256.01 98.8246 253.034 95.848C250.057 92.8714 246.02 91.1991 241.81 91.1991H236.048V76.0766H220.926V69.4364C220.926 65.2269 219.254 61.1897 216.277 58.2131C213.3 55.2365 209.263 53.5642 205.054 53.5642C200.844 53.5642 196.807 55.2365 193.83 58.2131C190.854 61.1897 189.181 65.2269 189.181 69.4364V76.0766H174.059V91.1991H180.699C184.909 91.1991 188.946 92.8714 191.922 95.848C194.899 98.8246 196.571 102.862 196.571 107.071C196.571 111.281 194.899 115.318 191.922 118.295C188.946 121.271 184.909 122.944 180.699 122.944Z" fill="white"/>
</g>
<path d="M184.483 69.0652L183.148 68.7297C181.711 68.434 180.31 67.9814 178.971 67.3802L178.793 67.2945C177.479 66.6591 175.837 65.8665 175.487 63.1034C175.481 62.929 175.414 62.7623 175.298 62.6319C175.182 62.5016 175.024 62.4158 174.852 62.3894C162.614 61.7967 158.351 55.3207 158.344 48.1093C158.344 41.0407 162.992 34.3648 176.194 34.2078C188.432 34.0578 194.558 41.5905 194.187 49.3517C193.944 54.3069 190.06 61.097 182.67 62.6392C181.763 62.9463 180.149 63.0034 179.585 63.8174C179.459 64.0146 179.393 64.2438 179.393 64.4778C179.393 64.7118 179.459 64.941 179.585 65.1382C179.851 65.5439 180.176 65.9074 180.549 66.2164C181.863 67.3445 184.483 69.0652 184.483 69.0652Z" fill="white"/>
<path d="M184.483 69.4222H184.398L183.063 69.0938C181.601 68.7897 180.176 68.3276 178.814 67.7158L178.643 67.6301C177.322 66.9946 175.508 66.1236 175.137 63.1605C175.137 63.0962 175.073 62.7463 174.83 62.7321C160.186 62.0181 157.994 53.2716 157.987 48.1236C157.987 43.9039 159.75 34.065 176.194 33.8436C183.955 33.7651 188.332 36.6139 190.674 39.0415C191.996 40.4027 193.023 42.0224 193.69 43.799C194.357 45.5756 194.65 47.4709 194.551 49.366C194.306 52.5971 193.031 55.6644 190.913 58.1167C188.794 60.5691 185.945 62.2769 182.784 62.9891C182.485 63.0855 182.18 63.1618 181.87 63.2176C181.106 63.3747 180.242 63.5532 179.921 64.0244C179.833 64.162 179.787 64.3218 179.787 64.4849C179.787 64.6481 179.833 64.8079 179.921 64.9455C180.167 65.3209 180.468 65.6578 180.813 65.9451C182.091 67.0446 184.683 68.7439 184.712 68.7654C184.782 68.8108 184.833 68.8796 184.856 68.9594C184.88 69.0393 184.874 69.1249 184.84 69.2009C184.812 69.2708 184.762 69.3299 184.698 69.3696C184.634 69.4094 184.559 69.4278 184.483 69.4222ZM176.565 34.5576H176.201C160.393 34.7504 158.694 44.0895 158.701 48.1236C158.701 53.0217 160.807 61.3398 174.866 62.0181C175.129 62.0457 175.374 62.1681 175.554 62.3624C175.734 62.5568 175.837 62.81 175.844 63.0748C176.172 65.6452 177.643 66.3592 178.95 66.9875L179.128 67.0732C180.254 67.59 181.432 67.9849 182.641 68.2513C181.849 67.7015 180.942 67.0375 180.321 66.502C179.921 66.1687 179.574 65.7763 179.293 65.3382C179.125 65.0853 179.035 64.7885 179.035 64.4849C179.035 64.1814 179.125 63.8846 179.293 63.6317C179.771 62.9177 180.785 62.7178 181.685 62.5321C182.006 62.4607 182.32 62.3965 182.556 62.3179C185.577 61.6528 188.305 60.0331 190.335 57.698C192.366 55.363 193.591 52.4367 193.83 49.3517C193.925 47.5536 193.648 45.7551 193.015 44.0693C192.382 42.3835 191.408 40.8467 190.153 39.5556C187.953 37.2565 183.812 34.5576 176.565 34.5576Z" fill="#31B5A7"/>
<path d="M169.932 66.0664C170.782 65.1025 171.182 64.1386 170.967 63.2533C170.525 61.3897 168.875 61.4183 167.811 61.0613C160.422 59.5119 156.537 54.1569 156.295 49.2017C155.923 41.4406 162.05 33.9007 174.287 34.0507C187.496 34.2149 192.137 40.8908 192.137 47.9522C192.137 55.1422 187.853 61.6182 175.63 62.2322C175.223 62.2322 175.037 62.6249 174.987 62.9462C174.644 65.7094 173.002 66.5162 171.689 67.1374L171.51 67.2231C170.17 67.8212 168.77 68.2736 167.333 68.5726L165.998 68.901C165.998 68.901 168.768 67.3659 169.932 66.0664Z" fill="white"/>
<path d="M165.977 69.258C165.905 69.259 165.834 69.2385 165.775 69.199C165.715 69.1595 165.668 69.103 165.641 69.0366C165.609 68.9563 165.608 68.8672 165.636 68.7858C165.665 68.7044 165.723 68.6363 165.798 68.594C165.798 68.594 168.554 67.0588 169.639 65.8236C170.446 64.8954 170.767 64.06 170.596 63.3318C170.289 62.0394 169.354 61.8181 168.368 61.5825C168.126 61.5254 167.883 61.4682 167.654 61.3968C159.872 59.7689 156.13 54.0998 155.895 49.216C155.796 47.3198 156.089 45.4236 156.756 43.6459C157.423 41.8681 158.45 40.2472 159.772 38.8844C162.114 36.464 166.491 33.5865 174.252 33.6865C190.674 33.8936 192.466 43.7253 192.459 47.9665C192.459 53.1144 190.26 61.8681 175.616 62.5749C175.373 62.5749 175.316 62.9319 175.308 63.0033C174.937 65.9593 173.124 66.8375 171.803 67.473L171.631 67.5586C170.257 68.1697 168.821 68.6317 167.347 68.9367L166.005 69.2651L165.977 69.258ZM173.895 34.4005C166.641 34.4005 162.471 37.0994 160.329 39.3985C159.074 40.6896 158.099 42.2263 157.466 43.9122C156.833 45.598 156.556 47.3964 156.652 49.1946C156.873 53.807 160.436 59.1906 167.883 60.7185C168.119 60.7971 168.34 60.8471 168.597 60.9042C169.582 61.1398 170.939 61.4611 171.346 63.1747C171.574 64.1457 171.203 65.1953 170.232 66.3091C169.606 66.9611 168.906 67.5385 168.147 68.0299C169.262 67.7684 170.348 67.3952 171.389 66.916L171.567 66.8304C172.867 66.2021 174.345 65.488 174.673 62.9176C174.677 62.6519 174.779 62.3971 174.96 62.202C175.14 62.007 175.387 61.8855 175.651 61.8609C189.703 61.1826 191.809 52.8645 191.816 47.9593C191.816 43.9538 190.124 34.6147 174.309 34.3934L173.895 34.4005Z" fill="#31B5A7"/>
<path d="M170.211 48.659L173.324 51.7721L180.356 46.0743" fill="white"/>
<path d="M173.324 52.4861C173.23 52.4866 173.136 52.4686 173.049 52.4331C172.962 52.3976 172.883 52.3452 172.817 52.279L169.704 49.166C169.629 49.102 169.568 49.0232 169.525 48.9347C169.482 48.8461 169.458 48.7496 169.455 48.6513C169.451 48.5529 169.467 48.4549 169.503 48.3632C169.539 48.2716 169.594 48.1884 169.663 48.1188C169.733 48.0492 169.816 47.9948 169.908 47.9589C169.999 47.923 170.097 47.9064 170.196 47.9102C170.294 47.914 170.39 47.9381 170.479 47.981C170.568 48.0238 170.646 48.0845 170.71 48.1593L173.374 50.8153L179.907 45.5246C179.979 45.4599 180.063 45.4105 180.155 45.3794C180.246 45.3483 180.343 45.3362 180.44 45.3437C180.536 45.3513 180.63 45.3783 180.716 45.4233C180.801 45.4682 180.877 45.5301 180.938 45.6052C180.999 45.6803 181.044 45.767 181.071 45.86C181.097 45.9531 181.105 46.0505 181.092 46.1465C181.08 46.2425 181.048 46.3349 180.999 46.4183C180.95 46.5016 180.884 46.5741 180.806 46.6313L173.773 52.3433C173.644 52.4405 173.485 52.4909 173.324 52.4861Z" fill="#31B5A7"/>
<path d="M264.266 31.723C264.451 31.7898 264.653 31.7946 264.841 31.7366C265.029 31.6787 265.193 31.5611 265.308 31.4017L270.72 23.8476C270.79 23.7524 270.84 23.6443 270.867 23.5295C270.895 23.4147 270.899 23.2957 270.88 23.1792C270.86 23.0628 270.818 22.9515 270.755 22.8517C270.692 22.7519 270.61 22.6656 270.513 22.5981C270.32 22.4609 270.08 22.4057 269.846 22.4445C269.612 22.4833 269.403 22.6129 269.264 22.8051L263.852 30.3593C263.782 30.4544 263.732 30.5626 263.704 30.6773C263.677 30.7921 263.673 30.9112 263.692 31.0276C263.711 31.144 263.754 31.2554 263.817 31.3552C263.88 31.455 263.962 31.5412 264.059 31.6088C264.122 31.6564 264.192 31.6949 264.266 31.723Z" fill="#31B5A7"/>
<path d="M270.663 41.669C270.809 41.7226 270.967 41.7373 271.12 41.7119L280.095 40.2267C280.316 40.1738 280.509 40.039 280.635 39.8494C280.761 39.6598 280.81 39.4296 280.773 39.2051C280.736 38.9805 280.615 38.7784 280.435 38.6394C280.255 38.5005 280.029 38.4349 279.802 38.456L270.827 39.9412C270.633 39.9749 270.455 40.0716 270.321 40.2164C270.187 40.3612 270.104 40.546 270.086 40.7424C270.067 40.9388 270.113 41.1359 270.218 41.3033C270.322 41.4708 270.479 41.5993 270.663 41.669Z" fill="#31B5A7"/>
<path d="M243.088 35.4215C243.291 35.4931 243.514 35.4895 243.714 35.4113C243.915 35.3332 244.081 35.1856 244.182 34.9955C244.283 34.8054 244.312 34.5853 244.265 34.3753C244.218 34.1652 244.097 33.9791 243.924 33.8507L236.141 28.2744C235.951 28.1725 235.731 28.1428 235.521 28.1906C235.311 28.2384 235.125 28.3606 234.998 28.5346C234.871 28.7086 234.811 28.9227 234.83 29.1373C234.848 29.3519 234.944 29.5526 235.099 29.7024L242.881 35.2787C242.943 35.3364 243.013 35.3846 243.088 35.4215Z" fill="#31B5A7"/>
<path d="M275.347 58.5479C275.551 58.6236 275.775 58.623 275.978 58.5461C276.182 58.4692 276.35 58.3214 276.453 58.1298C276.556 57.9383 276.586 57.716 276.537 57.5041C276.489 57.2922 276.365 57.105 276.189 56.9772L268.871 51.7293C268.775 51.6603 268.666 51.611 268.551 51.5841C268.436 51.5572 268.316 51.5533 268.2 51.5725C268.083 51.5918 267.971 51.6338 267.871 51.6962C267.77 51.7586 267.683 51.8402 267.614 51.9363C267.545 52.0324 267.496 52.1412 267.469 52.2563C267.442 52.3715 267.438 52.4908 267.458 52.6075C267.477 52.7242 267.519 52.836 267.581 52.9364C267.644 53.0369 267.725 53.124 267.821 53.193L275.14 58.4337C275.204 58.4798 275.274 58.5182 275.347 58.5479Z" fill="#31B5A7"/>
<path d="M252.863 29.274C253.01 29.3282 253.169 29.343 253.324 29.3169C253.479 29.2908 253.624 29.2246 253.745 29.125C253.866 29.0254 253.959 28.8958 254.015 28.7491C254.071 28.6024 254.087 28.4436 254.063 28.2887L252.513 18.9281C252.502 18.8051 252.465 18.6858 252.406 18.5776C252.346 18.4694 252.265 18.3747 252.167 18.2992C252.069 18.2238 251.957 18.1693 251.837 18.1392C251.717 18.109 251.593 18.1038 251.471 18.124C251.349 18.1441 251.232 18.1892 251.129 18.2563C251.025 18.3234 250.936 18.4111 250.868 18.514C250.8 18.6169 250.753 18.7327 250.732 18.8544C250.71 18.976 250.714 19.1007 250.742 19.2209L252.292 28.56C252.314 28.7194 252.379 28.87 252.479 28.9957C252.58 29.1214 252.712 29.2175 252.863 29.274Z" fill="#31B5A7"/>
<g opacity="0.5">
<path opacity="0.5" d="M264.266 31.723C264.451 31.7898 264.653 31.7946 264.841 31.7366C265.029 31.6787 265.193 31.5611 265.308 31.4017L270.72 23.8476C270.79 23.7524 270.84 23.6443 270.867 23.5295C270.895 23.4147 270.899 23.2957 270.88 23.1792C270.86 23.0628 270.818 22.9515 270.755 22.8517C270.692 22.7519 270.61 22.6656 270.513 22.5981C270.32 22.4609 270.08 22.4057 269.846 22.4445C269.612 22.4833 269.403 22.6129 269.264 22.8051L263.852 30.3593C263.782 30.4544 263.732 30.5626 263.704 30.6773C263.677 30.7921 263.673 30.9112 263.692 31.0276C263.711 31.144 263.754 31.2554 263.817 31.3552C263.88 31.455 263.962 31.5412 264.059 31.6088C264.122 31.6564 264.192 31.6949 264.266 31.723Z" fill="white"/>
<path opacity="0.5" d="M270.663 41.669C270.809 41.7226 270.967 41.7373 271.12 41.7119L280.095 40.2267C280.316 40.1738 280.509 40.039 280.635 39.8494C280.761 39.6598 280.81 39.4296 280.773 39.2051C280.736 38.9805 280.615 38.7784 280.435 38.6394C280.255 38.5005 280.029 38.4349 279.802 38.456L270.827 39.9412C270.633 39.9749 270.455 40.0716 270.321 40.2164C270.187 40.3612 270.104 40.546 270.086 40.7424C270.067 40.9388 270.113 41.1359 270.218 41.3033C270.322 41.4708 270.479 41.5993 270.663 41.669Z" fill="white"/>
<path opacity="0.5" d="M243.088 35.4215C243.291 35.4931 243.514 35.4895 243.714 35.4113C243.915 35.3332 244.081 35.1856 244.182 34.9955C244.283 34.8054 244.312 34.5853 244.265 34.3753C244.218 34.1652 244.097 33.9791 243.924 33.8507L236.141 28.2744C235.951 28.1725 235.731 28.1428 235.521 28.1906C235.311 28.2384 235.125 28.3606 234.998 28.5346C234.871 28.7086 234.811 28.9227 234.83 29.1373C234.848 29.3519 234.944 29.5526 235.099 29.7024L242.881 35.2787C242.943 35.3364 243.013 35.3846 243.088 35.4215Z" fill="white"/>
<path opacity="0.5" d="M275.347 58.5479C275.551 58.6236 275.775 58.623 275.978 58.5461C276.182 58.4692 276.35 58.3214 276.453 58.1298C276.556 57.9383 276.586 57.716 276.537 57.5041C276.489 57.2922 276.365 57.105 276.189 56.9772L268.871 51.7293C268.775 51.6603 268.666 51.611 268.551 51.5841C268.436 51.5572 268.316 51.5533 268.2 51.5725C268.083 51.5918 267.971 51.6338 267.871 51.6962C267.77 51.7586 267.683 51.8402 267.614 51.9363C267.545 52.0324 267.496 52.1412 267.469 52.2563C267.442 52.3715 267.438 52.4908 267.458 52.6075C267.477 52.7242 267.519 52.836 267.581 52.9364C267.644 53.0369 267.725 53.124 267.821 53.193L275.14 58.4337C275.204 58.4798 275.274 58.5182 275.347 58.5479Z" fill="white"/>
<path opacity="0.5" d="M252.863 29.274C253.01 29.3282 253.169 29.343 253.324 29.3169C253.479 29.2908 253.624 29.2246 253.745 29.125C253.866 29.0254 253.959 28.8958 254.015 28.7491C254.071 28.6024 254.087 28.4436 254.063 28.2887L252.513 18.9281C252.502 18.8051 252.465 18.6858 252.406 18.5776C252.346 18.4694 252.265 18.3747 252.167 18.2992C252.069 18.2238 251.957 18.1693 251.837 18.1392C251.717 18.109 251.593 18.1038 251.471 18.124C251.349 18.1441 251.232 18.1892 251.129 18.2563C251.025 18.3234 250.936 18.4111 250.868 18.514C250.8 18.6169 250.753 18.7327 250.732 18.8544C250.71 18.976 250.714 19.1007 250.742 19.2209L252.292 28.56C252.314 28.7194 252.379 28.87 252.479 28.9957C252.58 29.1214 252.712 29.2175 252.863 29.274Z" fill="white"/>
</g>
<path d="M245.066 37.9776C247.02 35.5632 249.826 33.9898 252.905 33.5815C255.984 33.1731 259.103 33.9608 261.619 35.7824C264.135 37.604 265.857 40.3209 266.43 43.3737C267.004 46.4266 266.385 49.583 264.701 52.1934C261.845 56.1275 256.797 56.5202 252.563 58.2053C251.249 58.7265 248.708 62.3822 248.708 62.3822L240.382 56.3488C240.382 56.3488 243.06 52.7788 243.145 51.3865C243.424 46.8384 242.217 41.9118 245.066 37.9776Z" fill="#31B5A7"/>
<path opacity="0.4" d="M245.066 37.9776C247.02 35.5632 249.826 33.9898 252.905 33.5815C255.984 33.1731 259.103 33.9608 261.619 35.7824C264.135 37.604 265.857 40.3209 266.43 43.3737C267.004 46.4266 266.385 49.583 264.701 52.1934C261.845 56.1275 256.797 56.5202 252.563 58.2053C251.249 58.7265 248.708 62.3822 248.708 62.3822L240.382 56.3488C240.382 56.3488 243.06 52.7788 243.145 51.3865C243.424 46.8384 242.217 41.9118 245.066 37.9776Z" fill="white"/>
<path d="M240.618 61.0256L244.188 63.596C244.502 63.8235 244.857 63.987 245.234 64.0771C245.61 64.1673 246.001 64.1822 246.384 64.1212C246.767 64.0602 247.133 63.9244 247.463 63.7216C247.794 63.5188 248.08 63.2529 248.308 62.9391L239.975 56.913C239.518 57.5447 239.33 58.3313 239.45 59.1016C239.57 59.8718 239.99 60.5634 240.618 61.0256Z" fill="#263238"/>
<path d="M240.618 64.8169C241.134 65.19 241.777 65.3432 242.407 65.2428C243.036 65.1424 243.599 64.7967 243.974 64.2814L240.082 61.4611C239.709 61.9774 239.556 62.6206 239.657 63.2497C239.757 63.8787 240.103 64.4423 240.618 64.8169Z" fill="#263238"/>
<path opacity="0.5" d="M240.618 64.8169C241.134 65.19 241.777 65.3432 242.407 65.2428C243.036 65.1424 243.599 64.7967 243.974 64.2814L240.082 61.4611C239.709 61.9774 239.556 62.6206 239.657 63.2497C239.757 63.8787 240.103 64.4423 240.618 64.8169Z" fill="white"/>
<g opacity="0.7">
<path opacity="0.7" d="M240.618 61.0256L244.188 63.596C244.502 63.8235 244.857 63.987 245.234 64.0771C245.61 64.1673 246.001 64.1822 246.384 64.1212C246.767 64.0602 247.133 63.9244 247.463 63.7216C247.794 63.5188 248.08 63.2529 248.308 62.9391L239.975 56.913C239.518 57.5447 239.33 58.3313 239.45 59.1016C239.57 59.8718 239.99 60.5634 240.618 61.0256Z" fill="white"/>
</g>
<path opacity="0.3" d="M247.544 36.9923C243.096 43.1969 241.946 53.0073 246.737 56.4345C251.528 59.8617 261.017 54.7923 264.887 49.423C267.257 46.1172 265.301 40.648 260.51 37.2208C255.719 33.7936 249.9 33.6865 247.544 36.9923Z" fill="white"/>
<path opacity="0.4" d="M246.266 45.2176C245.472 46.3224 245.024 47.6378 244.978 48.9973C244.932 50.3568 245.291 51.6993 246.008 52.855C246.725 54.0108 247.77 54.9278 249.008 55.49C250.247 56.0522 251.624 56.2344 252.967 56.0136C254.309 55.7927 255.555 55.1787 256.549 54.2492C257.542 53.3197 258.237 52.1165 258.546 50.7918C258.855 49.4672 258.765 48.0806 258.285 46.8075C257.806 45.5344 256.96 44.4319 255.855 43.6397C254.374 42.5785 252.532 42.1486 250.734 42.4444C248.936 42.7403 247.329 43.7377 246.266 45.2176Z" fill="white"/>
<path opacity="0.4" d="M246.965 47.8379C245.409 49.9799 246.694 51.922 248.865 53.4785C251.035 55.0351 253.256 55.6205 254.812 53.4785C256.369 51.3365 255.055 49.423 252.892 47.8665C250.728 46.31 248.515 45.6959 246.965 47.8379Z" fill="white"/>
<path d="M76.1553 63.0105L78.59 65.0383L92.6701 53.0074L110.649 56.6416L124.35 43.7182L125.578 45.4033L128.827 38.0776L120.859 38.9273L122.087 40.6123L110.063 53.9284L92.0632 50.4298L76.1553 63.0105Z" fill="#31B5A7"/>
<g opacity="0.3">
<path opacity="0.3" d="M76.1553 63.0105L78.59 65.0383L92.6701 53.0074L110.649 56.6416L124.35 43.7182L125.578 45.4033L128.827 38.0776L120.859 38.9273L122.087 40.6123L110.063 53.9284L92.0632 50.4298L76.1553 63.0105Z" fill="white"/>
</g>
<path d="M209.273 168.304C209.688 174.773 208.088 183.098 206.56 189.303C205.296 194.429 204.418 195.843 204.083 198.113C203.719 200.698 204.504 204.539 204.304 207.788C203.54 220.64 198.314 246.63 198.314 246.63L193.93 246.351L194.044 196.036L196.9 147.284L214.2 151.896C215.928 161.364 209.273 168.304 209.273 168.304Z" fill="#DD8C6A"/>
<path d="M231.536 247.522L227.552 247.408L216.492 198.285L205.311 150.754L223.239 150.218C227.523 158.786 223.175 167.354 223.175 167.354C225.41 173.445 226.26 181.877 226.567 188.267C226.824 193.537 226.359 195.15 226.702 197.414C227.102 199.998 228.359 203.433 229.108 206.624C232.05 219.291 231.536 247.522 231.536 247.522Z" fill="#DD8C6A"/>
<path d="M173.145 106.807L175.23 109.549C177.308 110.192 177.265 113.283 177.265 113.283C177.715 113.633 181.942 116.303 182.927 117.167L180.435 119.852C179.357 118.203 175.608 115.411 175.608 115.411C175.608 115.411 170.51 112.291 169.675 111.177C168.84 110.063 170.232 106.75 170.232 106.75L173.145 106.807Z" fill="#DD8C6A"/>
<path d="M178.914 113.562C182.334 116.054 187.382 119.873 187.382 119.873C190.07 116.903 192.906 114.07 195.879 111.384C197.722 109.635 199.831 108.189 202.126 107.1L201.248 117.374C198.542 119.702 190.06 126.742 186.747 126.457C184.012 126.221 178.936 120.359 176.037 116.732L178.914 113.562Z" fill="#263238"/>
<path opacity="0.2" d="M192.887 123.743C194.694 120.694 199.649 112.691 199.649 112.691L200.834 115.382L200.034 118.338C198.778 119.395 194.701 122.422 192.887 123.743Z" fill="black"/>
<path d="M225.417 112.298C224.691 121.707 223.341 131.057 221.376 140.287C221.376 140.287 231.836 148.855 228.444 184.048C228.444 184.048 217.863 188.732 192.887 183.162L197.635 140.13C197.635 140.13 196.536 112.162 199.506 109.042C202.133 106.272 213.593 102.616 222.354 106.957C223.337 107.442 224.154 108.209 224.699 109.161C225.245 110.112 225.495 111.204 225.417 112.298Z" fill="#31B5A7"/>
<path opacity="0.4" d="M225.417 112.298C224.691 121.707 223.341 131.057 221.376 140.287C221.376 140.287 231.836 148.855 228.444 184.048C228.444 184.048 217.863 188.732 192.887 183.162L197.635 140.13C197.635 140.13 196.536 112.162 199.506 109.042C202.133 106.272 213.593 102.616 222.354 106.957C223.337 107.442 224.154 108.209 224.699 109.161C225.245 110.112 225.495 111.204 225.417 112.298Z" fill="black"/>
<path opacity="0.3" d="M213.258 139.344C213.258 139.344 205.596 140.672 200.213 139.344V142.629C200.213 142.629 204.218 143.207 213.258 142.629V139.344Z" fill="black"/>
<path d="M217.713 94.9619C216.699 97.8179 215.378 102.923 216.463 105.858C216.593 106.199 216.602 106.573 216.489 106.92C216.376 107.267 216.148 107.565 215.842 107.764C213.636 109.356 210.045 110.62 207.346 110.356C203.883 109.977 204.782 107.5 205.668 106.179C205.903 105.822 206.275 105.315 206.696 105.236C210.102 104.658 210.751 102.102 210.487 99.5244L217.713 94.9619Z" fill="#DD8C6A"/>
<path opacity="0.3" d="M214.771 96.8254L210.487 99.5029C210.544 100.135 210.544 100.77 210.487 101.402C211.346 101.376 212.185 101.141 212.931 100.716C213.678 100.292 214.31 99.6917 214.771 98.9674C215.271 98.0607 215.121 96.9897 214.771 96.8254Z" fill="black"/>
<path d="M206.467 96.4257L204.532 99.9028C205.132 99.9528 205.675 100.153 206.275 100.203C206.575 99.7315 206.932 99.2674 207.231 98.7747C207.117 99.2602 206.724 99.7814 206.603 100.26C207.668 100.456 208.748 100.558 209.83 100.567C209.885 100.407 209.906 100.238 209.892 100.07C209.879 99.9014 209.831 99.7377 209.752 99.5887C209.178 98.2974 208.167 97.2504 206.896 96.6327L206.467 96.4257Z" fill="#263238"/>
<path d="M219.062 90.271C217.813 94.7192 217.306 97.411 214.528 99.2103C210.352 101.952 205.247 98.6748 205.125 93.9481C205.032 89.6641 207.096 83.1239 211.894 82.2885C213.535 81.9971 215.225 82.3677 216.594 83.319C217.963 84.2704 218.899 85.7251 219.198 87.365C219.376 88.3313 219.329 89.3254 219.062 90.271Z" fill="#DD8C6A"/>
<path d="M208.631 90.271C208.093 91.1091 207.445 91.8705 206.703 92.5344C206.879 92.7186 207.092 92.8629 207.329 92.9577C207.565 93.0525 207.819 93.0957 208.074 93.0842L208.631 90.271Z" fill="#FF5652"/>
<path d="M213.522 88.6359C213.557 88.6431 213.593 88.6431 213.629 88.6359C213.68 88.6098 213.72 88.565 213.74 88.5107C213.76 88.4563 213.758 88.3965 213.736 88.3432C213.595 88.0224 213.38 87.7398 213.108 87.5188C212.836 87.2978 212.515 87.1447 212.172 87.0723C212.115 87.0641 212.056 87.079 212.009 87.1137C211.962 87.1485 211.931 87.2003 211.922 87.2579C211.914 87.3156 211.929 87.3742 211.964 87.421C211.999 87.4678 212.05 87.499 212.108 87.5078C212.378 87.5699 212.63 87.6947 212.844 87.872C213.057 88.0494 213.226 88.2743 213.336 88.5288C213.355 88.5614 213.382 88.5885 213.415 88.6073C213.447 88.6261 213.484 88.636 213.522 88.6359Z" fill="#263238"/>
<path d="M206.503 86.5367C206.535 86.5562 206.572 86.5665 206.61 86.5665C206.648 86.5665 206.685 86.5562 206.717 86.5367C206.952 86.3928 207.217 86.3067 207.492 86.2856C207.766 86.2645 208.041 86.309 208.295 86.4153C208.347 86.4402 208.407 86.4436 208.462 86.425C208.517 86.4063 208.562 86.3669 208.588 86.3153C208.602 86.2901 208.61 86.2624 208.613 86.2339C208.615 86.2054 208.612 86.1767 208.603 86.1494C208.595 86.1221 208.581 86.0968 208.562 86.075C208.544 86.0533 208.521 86.0354 208.495 86.0226C208.174 85.8824 207.823 85.8209 207.473 85.8432C207.123 85.8656 206.783 85.9711 206.482 86.1511C206.457 86.1646 206.435 86.1829 206.417 86.2049C206.399 86.227 206.386 86.2523 206.378 86.2796C206.37 86.3068 206.367 86.3354 206.37 86.3636C206.373 86.3918 206.382 86.4191 206.396 86.4439C206.423 86.484 206.46 86.5161 206.503 86.5367Z" fill="#263238"/>
<path d="M216.299 104.401L211.301 108.271C211.088 108.436 210.84 108.551 210.576 108.604C210.312 108.658 210.039 108.65 209.778 108.581C209.518 108.512 209.277 108.384 209.074 108.206C208.871 108.028 208.712 107.806 208.609 107.557L207.474 104.958L206.146 105.301C205.994 105.337 205.855 105.415 205.746 105.526C205.636 105.637 205.559 105.777 205.525 105.929C205.261 107.15 204.29 110.134 204.347 112.812C204.347 112.812 207.41 108.714 209.138 111.662C209.138 111.662 211.394 108.999 213.215 113.604C214.38 111.93 215.412 110.165 216.299 108.328C217.235 106.143 217.863 104.958 217.863 104.958L216.299 104.401Z" fill="white"/>
<path d="M216.899 104.622C214.71 114.077 213.218 123.68 212.436 133.354C211.43 147.834 211.223 152.21 216.949 151.582C222.675 150.954 227.366 150.233 226.531 148.148C225.695 146.063 222.575 141.372 222.768 138.98C222.961 136.588 224.953 117.946 225.181 115.125C225.41 112.305 227.109 106.386 216.899 104.622Z" fill="#263238"/>
<path d="M217.877 144.057C217.806 143.671 219.177 142.279 220.733 141.308C221.771 140.689 222.872 140.184 224.018 139.801C224.018 139.801 227.216 136.038 228.102 135.017L230.572 137.159C228.963 138.641 227.43 140.205 225.981 141.843L224.653 144.649C224.175 145.326 223.534 145.872 222.789 146.234C221.952 146.623 221.079 146.931 220.183 147.155C220.011 147.201 219.829 147.19 219.663 147.125C219.497 147.059 219.357 146.942 219.262 146.791C218.666 145.954 218.199 145.032 217.877 144.057Z" fill="#DD8C6A"/>
<path d="M206.853 105.108C206.853 105.108 202.162 113.933 201.855 128.67C201.548 143.407 202.191 151.218 199.463 151.668C196.736 152.118 196.129 150.24 196.129 150.24C196.129 150.24 196.936 142.243 196.936 140.294C196.936 138.345 196.079 126.542 196.936 118.11C197.792 109.678 196.936 110.192 198.364 109.249C199.792 108.307 203.026 105.886 206.853 105.108Z" fill="#263238"/>
<path opacity="0.2" d="M223.589 131.012L220.776 114.868C220.776 114.868 223.096 117.232 224.817 119.045C224.489 122.344 224.003 126.999 223.589 131.012Z" fill="black"/>
<path d="M222.311 106.472C222.311 106.472 220.405 111.334 220.776 114.868C220.933 116.368 231.586 127.792 231.586 127.792L223.553 138.445L227.695 142.015C227.695 142.015 239.119 130.705 239.211 127.642C239.304 124.579 226.602 107.764 222.311 106.472Z" fill="#263238"/>
<path d="M211.901 89.7426C211.83 90.1139 211.573 90.3709 211.33 90.3281C211.087 90.2853 210.944 89.9425 211.023 89.5641C211.101 89.1857 211.351 88.9358 211.594 88.9786C211.837 89.0215 211.972 89.3642 211.901 89.7426Z" fill="#263238"/>
<path d="M207.696 88.9144C207.624 89.2857 207.367 89.5499 207.124 89.4999C206.882 89.4499 206.746 89.1143 206.817 88.743C206.889 88.3718 207.146 88.1076 207.388 88.1576C207.631 88.2075 207.774 88.536 207.696 88.9144Z" fill="#263238"/>
<path d="M207.488 88.1932L206.646 87.7648C206.646 87.7648 206.974 88.5359 207.488 88.1932Z" fill="#263238"/>
<path d="M211.694 89.0214L210.851 88.593C210.851 88.593 211.18 89.3784 211.694 89.0214Z" fill="#263238"/>
<path d="M209.295 95.1547C209.057 95.1737 208.819 95.1737 208.581 95.1547C208.565 95.1549 208.548 95.1515 208.534 95.1449C208.519 95.1383 208.505 95.1286 208.495 95.1164C208.484 95.1042 208.476 95.0899 208.471 95.0743C208.466 95.0588 208.465 95.0424 208.467 95.0262C208.468 94.9953 208.482 94.9662 208.505 94.945C208.527 94.9237 208.557 94.9119 208.588 94.912C209.101 94.9564 209.617 94.8809 210.095 94.6913C210.573 94.5016 211.001 94.2032 211.344 93.8196C211.355 93.8074 211.368 93.7977 211.383 93.791C211.398 93.7843 211.414 93.7809 211.43 93.7809C211.446 93.7809 211.462 93.7843 211.477 93.791C211.491 93.7977 211.505 93.8074 211.515 93.8196C211.538 93.8423 211.551 93.8731 211.551 93.9052C211.551 93.9374 211.538 93.9682 211.515 93.9909C210.949 94.6459 210.156 95.0619 209.295 95.1547Z" fill="#263238"/>
<path d="M216.406 81.5745C218.597 87.8431 218.285 94.7154 215.535 100.76C216.156 100.574 216.82 100.431 217.434 100.253C217.734 99.4602 217.97 98.6462 218.27 97.8608C218.17 98.5748 217.977 99.4602 217.877 100.21L219.555 99.9028C219.848 99.1389 220.091 98.2821 220.383 97.5181C220.255 98.1964 220.112 99.146 219.976 99.8243C221.922 98.4975 223.296 96.4859 223.825 94.1908C224.365 91.65 224.033 89.0013 222.882 86.6724C221.497 84.252 219.077 83.2595 216.406 81.5745Z" fill="#263238"/>
<path d="M220.626 93.9124C220.282 95.0267 219.512 95.9605 218.484 96.5113C217.12 97.2253 216.114 96.0972 216.221 94.6407C216.306 93.334 217.127 91.3777 218.627 91.2492C218.958 91.2227 219.291 91.2805 219.594 91.4171C219.897 91.5537 220.16 91.7647 220.36 92.0305C220.559 92.2963 220.688 92.6081 220.735 92.9372C220.781 93.2662 220.744 93.6017 220.626 93.9124Z" fill="#DD8C6A"/>
<path d="M206.882 116.268C206.663 116.266 206.448 116.215 206.253 116.118C206.03 116.006 205.837 115.845 205.688 115.645C205.539 115.445 205.439 115.213 205.396 114.968C205.354 114.553 205.435 114.134 205.628 113.764C205.82 113.393 206.117 113.087 206.482 112.883C207.124 112.512 207.832 112.27 208.567 112.169H208.652H209.231C209.323 112.175 209.411 112.216 209.474 112.283C209.538 112.351 209.573 112.44 209.573 112.533C209.572 112.626 209.534 112.714 209.469 112.779C209.404 112.844 209.316 112.881 209.223 112.883C208.874 112.883 208.452 113.597 208.367 114.176V114.261C208.367 114.614 208.285 114.963 208.128 115.279C207.97 115.595 207.742 115.87 207.46 116.082C207.286 116.192 207.087 116.256 206.882 116.268ZM208.074 113.026C207.648 113.105 207.239 113.26 206.867 113.483C206.625 113.621 206.426 113.822 206.29 114.065C206.154 114.308 206.087 114.583 206.096 114.861C206.123 114.993 206.181 115.118 206.264 115.224C206.347 115.331 206.453 115.416 206.575 115.475C206.656 115.519 206.746 115.542 206.839 115.542C206.931 115.542 207.022 115.519 207.103 115.475C207.474 115.282 207.56 114.718 207.646 114.176V114.09C207.718 113.711 207.863 113.35 208.074 113.026Z" fill="white"/>
<path d="M211.244 116.503C211.002 116.504 210.766 116.432 210.566 116.296C210.304 116.058 210.103 115.761 209.979 115.429C209.855 115.098 209.811 114.742 209.852 114.39V114.304C209.852 113.74 209.481 112.976 209.138 112.926C209.046 112.915 208.962 112.869 208.905 112.797C208.847 112.724 208.821 112.632 208.831 112.541C208.838 112.449 208.881 112.364 208.951 112.304C209.02 112.244 209.11 112.213 209.202 112.219H209.78H209.866C210.587 112.394 211.268 112.704 211.872 113.133C212.211 113.375 212.472 113.711 212.623 114.099C212.774 114.487 212.808 114.911 212.722 115.318C212.655 115.559 212.531 115.78 212.361 115.962C212.191 116.145 211.979 116.284 211.744 116.368C211.587 116.444 211.418 116.49 211.244 116.503ZM210.273 113.14C210.442 113.494 210.542 113.877 210.566 114.269V114.361C210.566 114.904 210.623 115.468 210.966 115.711C211.045 115.758 211.134 115.786 211.226 115.792C211.317 115.798 211.409 115.783 211.494 115.747C211.622 115.7 211.737 115.626 211.831 115.528C211.925 115.43 211.995 115.312 212.037 115.182C212.074 114.911 212.036 114.635 211.928 114.383C211.82 114.132 211.645 113.914 211.423 113.754C211.077 113.487 210.688 113.279 210.273 113.14Z" fill="white"/>
<path d="M207.06 120.123C207.022 120.131 206.983 120.131 206.946 120.123C206.856 120.094 206.781 120.03 206.738 119.946C206.696 119.861 206.688 119.763 206.717 119.674C207.428 117.466 207.907 115.19 208.145 112.883C208.155 112.789 208.201 112.702 208.275 112.641C208.349 112.581 208.443 112.553 208.538 112.562C208.633 112.572 208.72 112.618 208.78 112.692C208.84 112.766 208.869 112.86 208.859 112.955C208.623 115.311 208.144 117.637 207.431 119.895C207.403 119.969 207.352 120.031 207.285 120.072C207.217 120.114 207.138 120.132 207.06 120.123Z" fill="white"/>
<path d="M209.916 121.901C209.846 121.901 209.777 121.88 209.718 121.84C209.66 121.801 209.614 121.745 209.588 121.68C209.31 120.963 209.153 120.206 209.124 119.438C209.122 118.658 209.187 117.879 209.316 117.11C209.373 116.725 209.431 116.339 209.466 115.954C209.647 114.886 209.453 113.788 208.916 112.848C208.89 112.809 208.872 112.765 208.863 112.719C208.853 112.673 208.853 112.626 208.862 112.58C208.871 112.533 208.889 112.49 208.915 112.45C208.941 112.411 208.974 112.378 209.013 112.351C209.052 112.325 209.095 112.307 209.141 112.297C209.187 112.288 209.235 112.288 209.281 112.297C209.327 112.306 209.371 112.324 209.41 112.35C209.449 112.376 209.483 112.409 209.509 112.448C210.141 113.524 210.375 114.787 210.173 116.018C210.137 116.418 210.08 116.817 210.023 117.21C209.899 117.937 209.837 118.672 209.838 119.409C209.864 120.096 210.003 120.774 210.252 121.416C210.285 121.504 210.283 121.601 210.245 121.688C210.208 121.775 210.139 121.843 210.052 121.88C210.008 121.894 209.962 121.902 209.916 121.901Z" fill="white"/>
<path d="M216.064 89.764C215.678 89.4142 215.135 88.9786 214.75 88.6216C214.932 87.8456 214.995 87.0462 214.935 86.2511C214.757 86.8795 214.7 87.5221 214.521 88.1504L213.208 87.2793C212.895 87.0228 212.511 86.8683 212.108 86.8366C212.179 86.1869 212.208 85.5229 212.287 84.8731C212.137 85.4515 211.965 86.0941 211.822 86.6724C211.308 86.601 210.716 86.4796 210.209 86.4082C210.266 85.6942 210.352 85.0373 210.416 84.3448C210.195 84.8874 210.037 85.8156 209.816 86.3582L209.666 86.1512C208.204 85.7933 206.689 85.7086 205.197 85.9013C204.697 83.9378 205.296 81.1603 207.224 80.5249C213.757 78.3472 219.105 83.4451 219.255 83.8664C220.233 86.5582 218.427 88.3432 216.064 89.764Z" fill="#263238"/>
<path d="M218.484 95.2475C218.484 95.3704 218.448 95.4905 218.379 95.5926C218.311 95.6948 218.214 95.7744 218.101 95.8214C217.987 95.8684 217.862 95.8807 217.742 95.8568C217.621 95.8328 217.51 95.7736 217.424 95.6868C217.337 95.5999 217.278 95.4892 217.254 95.3687C217.23 95.2482 217.242 95.1233 217.289 95.0098C217.336 94.8963 217.416 94.7993 217.518 94.731C217.62 94.6628 217.74 94.6263 217.863 94.6263C218.028 94.6263 218.186 94.6918 218.302 94.8083C218.419 94.9248 218.484 95.0828 218.484 95.2475Z" fill="#31B5A7"/>
<path d="M192.437 245.459C188.989 247.351 188.603 247.387 184.798 248.108C183.962 248.265 184.255 250.25 186.226 250.293C189.446 250.393 189.174 250.293 191.938 250.35C194.279 250.407 197.1 250.607 198.963 250.685H199.028C199.231 250.671 199.42 250.576 199.554 250.422C199.688 250.268 199.755 250.068 199.742 249.864L199.335 245.623C199.323 245.533 199.28 245.45 199.213 245.389C199.147 245.328 199.061 245.292 198.97 245.287L193.658 245.138C193.23 245.132 192.808 245.243 192.437 245.459Z" fill="#263238"/>
<path d="M192.459 245.78C192.469 245.763 192.474 245.743 192.474 245.723C192.474 245.703 192.469 245.683 192.459 245.666C192.441 245.654 192.42 245.647 192.398 245.647C192.376 245.647 192.355 245.654 192.337 245.666C192.109 245.745 190.124 246.53 189.974 247.165C189.96 247.226 189.962 247.289 189.978 247.348C189.994 247.408 190.025 247.463 190.067 247.508C190.136 247.583 190.222 247.641 190.317 247.676C190.413 247.712 190.515 247.726 190.617 247.715C191.331 247.637 192.08 246.501 192.473 245.83L192.459 245.78ZM190.181 247.144C190.324 246.794 191.316 246.294 192.08 245.966C191.516 246.865 190.952 247.394 190.567 247.458C190.5 247.468 190.432 247.459 190.369 247.434C190.306 247.409 190.251 247.368 190.21 247.315C190.191 247.301 190.176 247.28 190.169 247.258C190.161 247.235 190.16 247.21 190.167 247.187L190.181 247.144Z" fill="#31B5A7"/>
<path d="M192.459 245.78C192.464 245.76 192.462 245.739 192.454 245.72C192.447 245.701 192.433 245.684 192.416 245.673C191.886 245.258 191.239 245.02 190.567 244.995C190.455 245.009 190.347 245.046 190.25 245.104C190.153 245.161 190.068 245.239 190.003 245.33C189.824 245.58 189.874 245.752 189.96 245.852C190.31 246.287 191.823 246.116 192.394 245.852C192.41 245.846 192.425 245.837 192.436 245.824C192.447 245.812 192.455 245.797 192.459 245.78ZM190.131 245.545L190.21 245.459C190.256 245.391 190.317 245.334 190.387 245.291C190.457 245.248 190.535 245.22 190.617 245.209C191.162 245.222 191.69 245.402 192.13 245.723C191.473 245.923 190.36 245.959 190.153 245.723C190.153 245.723 190.103 245.666 190.153 245.58L190.131 245.545Z" fill="#31B5A7"/>
<path d="M225.703 245.794C223.755 247.389 221.469 248.52 219.02 249.1C218.006 249.386 218.641 251.242 221.069 251.242C225.089 251.178 223.489 251.114 226.924 251.035C229.858 250.978 230.636 250.957 232.964 250.942H233.043C233.16 250.94 233.276 250.913 233.384 250.865C233.491 250.816 233.588 250.747 233.668 250.66C233.748 250.573 233.809 250.472 233.849 250.361C233.889 250.25 233.906 250.132 233.899 250.014L233.121 245.459C233.096 245.355 233.035 245.264 232.948 245.201C232.862 245.138 232.756 245.108 232.65 245.116L226.517 245.28C225.981 245.216 226.117 245.502 225.703 245.794Z" fill="#263238"/>
<path d="M225.674 246.151C225.688 246.133 225.695 246.11 225.695 246.087C225.695 246.064 225.688 246.041 225.674 246.023C225.665 245.999 225.649 245.979 225.629 245.964C225.609 245.949 225.585 245.94 225.56 245.937C225.253 245.937 222.59 246.023 222.168 246.651C222.132 246.708 222.113 246.773 222.113 246.84C222.113 246.908 222.132 246.973 222.168 247.03C222.226 247.135 222.307 247.227 222.404 247.297C222.502 247.367 222.614 247.415 222.732 247.437C223.575 247.608 224.946 246.723 225.703 246.173L225.674 246.151ZM222.418 246.723C222.725 246.408 224.103 246.251 225.139 246.201C224.096 246.915 223.204 247.265 222.739 247.187C222.662 247.174 222.588 247.142 222.525 247.095C222.462 247.048 222.41 246.986 222.375 246.915C222.36 246.894 222.351 246.867 222.351 246.84C222.351 246.814 222.36 246.787 222.375 246.765L222.418 246.723Z" fill="#31B5A7"/>
<path d="M225.674 246.151C225.686 246.134 225.693 246.112 225.693 246.091C225.693 246.069 225.686 246.048 225.674 246.03C225.624 245.994 224.732 244.831 223.775 244.681C223.5 244.629 223.215 244.679 222.975 244.823C222.654 245.016 222.647 245.209 222.704 245.338C222.932 245.894 224.789 246.273 225.56 246.223C225.583 246.221 225.606 246.213 225.625 246.201C225.645 246.188 225.662 246.171 225.674 246.151ZM223.025 245.073L223.118 244.981C223.294 244.877 223.503 244.841 223.703 244.881C224.32 245.069 224.867 245.437 225.274 245.937C224.41 245.902 223.089 245.552 222.954 245.223C222.954 245.223 222.954 245.145 223.047 245.066L223.025 245.073Z" fill="#31B5A7"/>
<path d="M162.849 133.011C161.842 134.996 165.191 137.431 165.191 137.431L166.776 139.051C167.036 139.334 167.391 139.511 167.773 139.548C168.155 139.585 168.538 139.479 168.847 139.251L170.41 138.138L170.46 138.102C170.782 137.856 170.995 137.496 171.055 137.096C171.115 136.696 171.017 136.289 170.782 135.96L169.732 134.532C169.307 133.947 168.762 133.46 168.133 133.104L165.127 131.376L162.849 133.011Z" fill="#DD8C6A"/>
<path d="M149.79 89.5213C150.169 88.6844 150.786 87.9774 151.564 87.4885C152.342 86.9995 153.247 86.7502 154.165 86.7715C155.084 86.7928 155.976 87.0839 156.73 87.6083C157.485 88.1328 158.068 88.8676 158.408 89.7213L158.508 89.9712C159.125 91.7169 159.369 93.5731 159.222 95.419C159.179 97.2397 159.122 99.0889 159.151 100.853C159.179 102.616 159.151 108.985 159.208 110.713C159.265 112.312 162.499 119.545 165.634 129.991C165.697 130.192 165.776 130.387 165.869 130.576L166.448 131.726C166.448 131.726 165.584 132.276 164.698 132.804C163.982 133.343 163.197 133.785 162.364 134.118C161.898 133.696 161.513 133.193 161.228 132.633C158.729 128.691 150.568 114.069 150.14 111.927C149.719 109.942 149.426 103.359 149.24 101.359C149.055 99.3603 148.912 97.411 148.855 95.4404C148.811 94.4512 148.849 93.4601 148.969 92.4773C149.095 91.4545 149.372 90.456 149.79 89.5142V89.5213Z" fill="#263238"/>
<path opacity="0.3" d="M149.79 89.5213C150.169 88.6844 150.786 87.9774 151.564 87.4885C152.342 86.9995 153.247 86.7502 154.165 86.7715C155.084 86.7928 155.976 87.0839 156.73 87.6083C157.485 88.1328 158.068 88.8676 158.408 89.7213L158.508 89.9712C159.125 91.7169 159.369 93.5731 159.222 95.419C159.179 97.2397 159.122 99.0889 159.151 100.853C159.179 102.616 159.151 108.985 159.208 110.713C159.265 112.312 162.499 119.545 165.634 129.991C165.697 130.192 165.776 130.387 165.869 130.576L166.448 131.726C166.448 131.726 165.584 132.276 164.698 132.804C163.982 133.343 163.197 133.785 162.364 134.118C161.898 133.696 161.513 133.193 161.228 132.633C158.729 128.691 150.568 114.069 150.14 111.927C149.719 109.942 149.426 103.359 149.24 101.359C149.055 99.3603 148.912 97.411 148.855 95.4404C148.811 94.4512 148.849 93.4601 148.969 92.4773C149.095 91.4545 149.372 90.456 149.79 89.5142V89.5213Z" fill="black"/>
<path d="M124.15 91.9846C125.371 106.05 130.041 113.976 129.413 125.214C129.413 125.214 154.76 125.714 155.631 125.714C156.002 105.008 158.958 106.586 158.051 93.4769C158.208 89.1929 155.759 86.5154 153.282 86.087L142.486 83.8522L128.57 86.2441C127.247 86.4703 126.057 87.1866 125.238 88.2504C124.419 89.3142 124.031 90.6474 124.15 91.9846Z" fill="#31B5A7"/>
<path d="M144.057 220.769L147.341 246.723L153.739 246.266L152.011 220.769H144.057Z" fill="#DD8C6A"/>
<path d="M155.295 193.287C155.873 217.763 154.46 238.74 154.46 238.74L145.827 239.326C145.827 239.326 140.965 207.567 142.929 194.594C142.836 191.866 139.68 157.758 138.595 151.311C136.631 139.737 134.532 131.797 134.532 131.797L154.845 130.662C154.845 130.662 154.938 177.879 155.295 193.287Z" fill="#31B5A7"/>
<g opacity="0.2">
<path opacity="0.2" d="M143.707 140.694C143.707 140.694 143.05 167.504 141.879 182.206C141.272 174.259 139.68 157.758 138.595 151.311L143.707 140.694Z" fill="black"/>
</g>
<path d="M117.032 221.247L114.397 245.845L120.773 245.152L125.4 220.94L117.032 221.247Z" fill="#DD8C6A"/>
<path d="M113.597 238.655L123.386 238.298C123.386 238.298 131.726 208.245 135.246 192.366C138.659 174.666 145.028 130.491 145.028 130.491L128.756 129.234C120.088 144.892 123.208 182.377 121.673 192.873C114.319 205.989 113.597 238.655 113.597 238.655Z" fill="#31B5A7"/>
<path d="M154.681 122.808H130.855C130.855 122.808 126.942 136.595 126.978 136.46C127.014 136.324 154.938 137.802 154.938 137.802L154.681 122.808Z" fill="#31B5A7"/>
<path d="M154.938 244.188C159.165 246.33 159.629 246.373 164.22 247.101C165.234 247.265 164.934 249.664 162.599 249.793C158.722 250.029 159.029 249.871 155.738 250.057C152.917 250.214 148.833 250.55 146.584 250.714H146.513C146.39 250.71 146.269 250.682 146.157 250.632C146.045 250.582 145.944 250.509 145.86 250.42C145.775 250.33 145.71 250.225 145.666 250.11C145.623 249.995 145.602 249.873 145.606 249.75L145.949 244.616C145.959 244.508 146.008 244.406 146.086 244.33C146.165 244.254 146.268 244.209 146.377 244.202L153.467 243.838C153.981 243.811 154.492 243.932 154.938 244.188Z" fill="#263238"/>
<path d="M154.938 244.559C155.438 245.359 156.409 246.701 157.244 246.766C157.367 246.776 157.491 246.757 157.606 246.71C157.72 246.663 157.821 246.589 157.901 246.494C157.952 246.44 157.988 246.373 158.005 246.3C158.023 246.228 158.021 246.152 158.001 246.08C157.794 245.316 155.374 244.445 155.102 244.359C155.076 244.349 155.046 244.347 155.018 244.353C154.99 244.359 154.965 244.374 154.945 244.395C154.933 244.417 154.927 244.442 154.927 244.466C154.927 244.491 154.933 244.516 154.945 244.538L154.938 244.559ZM157.744 246.151C157.751 246.179 157.751 246.208 157.743 246.236C157.736 246.263 157.721 246.288 157.701 246.309C157.652 246.374 157.587 246.425 157.511 246.456C157.436 246.488 157.354 246.498 157.273 246.487C156.802 246.451 156.109 245.773 155.388 244.745C156.33 245.109 157.53 245.68 157.73 246.094L157.744 246.151Z" fill="#31B5A7"/>
<path d="M154.938 244.616C155.652 244.902 157.473 245.052 157.88 244.516C157.973 244.395 158.037 244.181 157.808 243.888C157.721 243.779 157.613 243.689 157.491 243.622C157.368 243.556 157.233 243.515 157.094 243.503C156.159 243.388 154.952 244.345 154.888 244.381C154.871 244.397 154.857 244.417 154.848 244.439C154.84 244.462 154.836 244.485 154.838 244.509C154.838 244.536 154.848 244.563 154.867 244.583C154.885 244.602 154.911 244.615 154.938 244.616ZM157.666 244.181C157.684 244.207 157.693 244.238 157.693 244.27C157.693 244.302 157.684 244.333 157.666 244.359C157.423 244.673 156.08 244.673 155.281 244.452C155.801 244.051 156.431 243.817 157.087 243.781C157.186 243.791 157.281 243.822 157.367 243.871C157.453 243.92 157.528 243.987 157.587 244.067L157.687 244.167L157.666 244.181Z" fill="#31B5A7"/>
<path d="M122.344 243.924C124.072 245.438 126.549 246.823 130.419 247.908C131.64 248.251 130.869 250.521 127.942 250.457C123.094 250.386 125.021 250.3 120.88 250.214C117.31 250.143 116.403 250.114 113.59 250.093H113.526C113.384 250.091 113.243 250.061 113.113 250.003C112.983 249.945 112.866 249.862 112.77 249.758C112.673 249.654 112.598 249.531 112.55 249.397C112.502 249.263 112.482 249.121 112.491 248.979L113.426 243.481C113.458 243.355 113.533 243.244 113.639 243.168C113.745 243.092 113.875 243.056 114.004 243.067L121.401 243.267C122.016 243.224 121.858 243.567 122.344 243.924Z" fill="#263238"/>
<path d="M122.365 244.374C123.272 245.038 124.921 246.094 125.935 245.894C126.085 245.875 126.228 245.82 126.352 245.734C126.476 245.649 126.578 245.535 126.649 245.402C126.695 245.334 126.72 245.255 126.72 245.173C126.72 245.092 126.695 245.012 126.649 244.945C126.142 244.195 122.922 244.095 122.558 244.095C122.526 244.094 122.494 244.104 122.468 244.124C122.442 244.143 122.423 244.171 122.415 244.202C122.399 244.224 122.389 244.25 122.389 244.277C122.389 244.304 122.399 244.331 122.415 244.352L122.365 244.374ZM126.364 245.088C126.383 245.113 126.393 245.145 126.393 245.177C126.393 245.209 126.383 245.24 126.364 245.266C126.32 245.351 126.257 245.425 126.18 245.481C126.104 245.538 126.015 245.577 125.921 245.595C125.364 245.687 124.279 245.259 123.022 244.402C124.272 244.466 125.935 244.659 126.307 245.038L126.364 245.088Z" fill="#31B5A7"/>
<path d="M122.494 244.409C123.436 244.474 125.678 244.017 125.95 243.345C126.028 243.188 126.014 242.953 125.628 242.724C125.338 242.553 124.997 242.49 124.664 242.546C123.508 242.731 122.43 244.131 122.373 244.181C122.357 244.202 122.349 244.227 122.349 244.252C122.349 244.278 122.357 244.303 122.373 244.324C122.4 244.367 122.444 244.397 122.494 244.409ZM125.557 243.031C125.657 243.131 125.628 243.196 125.671 243.224C125.507 243.624 123.915 244.045 122.872 244.095C123.361 243.49 124.02 243.045 124.764 242.817C125.009 242.765 125.264 242.809 125.478 242.939L125.593 243.053L125.557 243.031Z" fill="#31B5A7"/>
<path opacity="0.8" d="M124.15 91.9846C125.371 106.05 130.041 113.976 129.413 125.214C129.413 125.214 154.76 125.714 155.631 125.714C156.002 105.008 158.958 106.586 158.051 93.4769C158.208 89.1929 155.645 86.4868 153.167 86.0584L142.457 83.8522L128.541 86.2441C127.223 86.4766 126.041 87.1956 125.227 88.2588C124.414 89.3219 124.03 90.6516 124.15 91.9846Z" fill="white"/>
<path d="M150.476 112.912L147.62 117.996L142.45 112.491C142.45 112.355 144.664 89.25 144.664 89.25L145.999 89.15C145.87 91.956 150.476 112.912 150.476 112.912Z" fill="#31B5A7"/>
<path d="M149.619 88.2718C150.842 98.1468 149.832 108.171 146.663 117.603L148.805 140.694C149.226 144.042 151.375 144.699 153.296 144.878L157.237 144.564L155.809 122.53C155.809 122.53 159.029 98.2535 158.287 92.7557C157.794 89.1286 156.595 87.7149 155.738 86.9795C155.37 86.6706 154.931 86.4594 154.46 86.3654C152.96 86.0513 148.548 84.8589 148.748 84.9374C148.948 85.016 149.619 88.2718 149.619 88.2718Z" fill="#263238"/>
<path d="M147.527 78.1544C146.984 80.7319 146.149 84.2448 148.955 85.4443C150.176 85.9727 150.754 87.6863 149.583 88.2361C148.412 88.7859 140.829 88.2361 140.165 87.9219C138.523 87.0794 137.367 86.4939 138.252 84.8517C139.794 82.0457 138.816 76.1766 138.609 73.3563L147.527 78.1544Z" fill="#DD8C6A"/>
<path d="M146.756 87.9648L146.406 89.0715C146.381 89.1987 146.319 89.3156 146.227 89.4072C146.136 89.4988 146.019 89.5609 145.892 89.5856L144.556 89.6855C144.449 89.6863 144.344 89.6528 144.257 89.5899C144.169 89.527 144.104 89.438 144.071 89.3357L143.421 88.3504L145.085 87.3722L146.756 87.9648Z" fill="#31B5A7"/>
<path opacity="0.2" d="M140.38 77.4333C140.785 78.4238 141.366 79.3332 142.093 80.118C143.128 81.3032 145.078 81.8245 146.963 81.8245C147.027 80.5763 147.213 79.3375 147.52 78.1259L147.127 77.9189L140.38 77.4333Z" fill="black"/>
<path d="M137.088 144.792C143.514 145.228 145.299 144.564 146.192 139.551C146.192 139.551 147.891 121.58 147.555 117.603C147.555 117.603 143.271 109.249 142.429 103.444C141.515 96.9541 137.531 83.9593 136.381 84.045C134.175 84.1949 125.942 87.0795 124.607 88.843C122.837 91.1921 123.986 93.9053 124.407 96.8184C125.75 106.15 126.756 109.363 127.263 118.774C127.263 118.774 122.979 143.05 123.636 143.136C124.136 143.186 131.962 144.442 137.088 144.792Z" fill="#263238"/>
<path opacity="0.2" d="M129.413 125.214H140.38V125.707C140.38 126.404 140.103 127.072 139.61 127.565C139.117 128.057 138.449 128.334 137.752 128.334H132.04C131.343 128.334 130.675 128.057 130.182 127.565C129.689 127.072 129.413 126.404 129.413 125.707V125.214Z" fill="white"/>
<path opacity="0.2" d="M156.059 128.456H154.517C153.82 128.483 153.14 128.233 152.626 127.761C152.113 127.289 151.807 126.632 151.775 125.935V125.45L156.016 125.271L156.059 128.456Z" fill="white"/>
<path d="M151.846 74.5416C151.132 79.6467 145.213 82.5884 141.058 79.1469C138.652 77.162 138.202 74.6915 137.574 70.8288C137.481 70.2433 137.388 69.6293 137.281 68.9724C137.109 67.9538 137.167 66.9095 137.452 65.9165C137.565 65.5017 137.721 65.0997 137.916 64.7169C138.631 63.272 139.83 62.1235 141.304 61.4712C142.778 60.8189 144.434 60.7042 145.984 61.1469C151.075 62.6321 152.482 69.972 151.846 74.5416Z" fill="#DD8C6A"/>
<path d="M139.623 65.131C140.316 66.264 140.901 67.4592 141.372 68.701C140.916 68.8048 140.478 68.9756 140.073 69.208C139.701 69.4436 140.073 70.5574 140.265 70.9715C140.613 71.8068 141.016 72.6179 141.472 73.3991C140.81 73.6802 140.118 73.8815 139.409 73.9989C139.214 73.4572 138.897 72.9682 138.48 72.5709C138.239 72.2758 137.915 72.0601 137.549 71.9519C137.184 71.8436 136.794 71.8479 136.431 71.964C136.303 71.3285 132.568 68.4583 135.681 66.5376C136.137 66.1757 136.639 65.8756 137.174 65.6451L137.888 65.3809C138.448 65.2003 139.034 65.1158 139.623 65.131Z" fill="#263238"/>
<path d="M136.603 70.686C138.195 70.3219 139.673 72.0712 140.173 73.3992C140.758 74.8701 140.058 76.3766 138.416 76.0839C137.804 75.9672 137.222 75.7304 136.702 75.3873C136.183 75.0441 135.736 74.6014 135.389 74.0847C135.169 73.8004 135.024 73.4653 134.967 73.1102C134.911 72.7552 134.944 72.3917 135.065 72.0531C135.186 71.7146 135.39 71.4119 135.659 71.173C135.928 70.934 136.252 70.7666 136.603 70.686Z" fill="#DD8C6A"/>
<path d="M146.156 68.5439C146.42 68.5439 146.67 68.8224 146.713 69.258C146.756 69.6935 146.606 70.0148 146.306 70.0434C146.006 70.0719 145.763 69.7649 145.72 69.3294C145.677 68.8938 145.892 68.6011 146.156 68.5439Z" fill="#263238"/>
<path d="M150.733 68.2441C150.997 68.2441 151.247 68.5226 151.289 68.9581C151.332 69.3937 151.154 69.715 150.883 69.7435C150.611 69.7721 150.368 69.4651 150.326 69.0652C150.283 68.6654 150.468 68.2798 150.733 68.2441Z" fill="#263238"/>
<path d="M149.576 73.335C149.92 73.3487 150.263 73.2861 150.581 73.1515C150.898 73.0169 151.181 72.8138 151.411 72.5567C150.407 71.6808 149.529 70.6691 148.805 69.5508L149.576 73.335Z" fill="#F98C8C"/>
<path d="M145.063 67.8728C145.21 67.6121 145.415 67.3891 145.663 67.2218C145.911 67.0544 146.195 66.9473 146.491 66.9089H146.57C146.633 66.8984 146.69 66.8632 146.727 66.811C146.765 66.7588 146.78 66.6939 146.77 66.6305C146.758 66.5679 146.722 66.5124 146.67 66.4752C146.619 66.4381 146.555 66.4221 146.491 66.4306C146.113 66.4663 145.748 66.5919 145.428 66.7968C145.107 67.0017 144.841 67.28 144.649 67.6087C144.619 67.6633 144.61 67.7273 144.625 67.7882C144.639 67.849 144.676 67.9021 144.728 67.9371C144.768 67.9474 144.809 67.9474 144.849 67.9371C144.926 67.9441 145.003 67.9211 145.063 67.8728Z" fill="#263238"/>
<path d="M151.639 67.4587C151.689 67.4193 151.721 67.3622 151.729 67.2996C151.737 67.2369 151.72 67.1736 151.682 67.1231C151.453 66.8204 151.154 66.5769 150.811 66.413C150.468 66.249 150.091 66.1694 149.712 66.1806C149.681 66.1832 149.651 66.1921 149.624 66.2066C149.597 66.2211 149.573 66.2409 149.553 66.2649C149.534 66.2889 149.52 66.3166 149.511 66.3463C149.503 66.376 149.501 66.4071 149.505 66.4377C149.513 66.4977 149.545 66.5519 149.593 66.5892C149.641 66.6264 149.701 66.6437 149.762 66.6376C150.062 66.6328 150.359 66.6996 150.629 66.8324C150.898 66.9653 151.132 67.1604 151.311 67.4015C151.335 67.4332 151.366 67.4583 151.403 67.4745C151.439 67.4908 151.478 67.4976 151.518 67.4944C151.56 67.4901 151.601 67.478 151.639 67.4587Z" fill="#263238"/>
<path d="M143.671 113.64C142.779 110.499 141.75 107.329 139.887 104.651C139.216 103.68 138.459 102.787 137.745 101.795C136.788 100.531 135.908 99.21 135.11 97.8395C135.896 97.1255 136.931 96.4115 137.773 95.7546L134.589 93.1199C135.39 90.093 135.757 86.968 135.681 83.8379C136.031 83.5887 136.464 83.4862 136.888 83.5523C138.41 85.9155 139.519 88.5208 140.165 91.2564C141.994 98.5993 143.167 106.09 143.671 113.64Z" fill="#263238"/>
<path opacity="0.2" d="M147.177 116.817C147.127 116.753 147.084 116.675 147.034 116.596C145.006 113.44 135.781 99.0317 135.139 97.8322C135.931 97.1182 136.967 96.4042 137.809 95.7473L134.625 93.1127C135.422 90.0851 135.79 86.9606 135.717 83.8307C136.064 83.5826 136.495 83.4801 136.917 83.5451C137.878 85.0363 138.677 86.6256 139.301 88.286C139.662 89.2535 139.961 90.2432 140.194 91.2491C142 98.3463 143.885 109.913 147.063 116.503L147.177 116.817Z" fill="white"/>
<path d="M151.775 115.161C151.725 111.891 151.775 108.564 152.796 105.458C153.16 104.337 153.646 103.259 154.024 102.138C154.51 100.71 155.988 98.939 156.288 97.4396C155.331 97.004 154.146 96.5613 153.132 96.2115L155.424 92.77C153.781 90.1068 151.275 87.9362 150.426 84.916C150.02 84.7786 149.577 84.8042 149.19 84.9874C148.683 86.6653 149.483 91.5491 149.526 92.5772C149.883 100.167 150.104 107.757 151.775 115.161Z" fill="#263238"/>
<path opacity="0.2" d="M156.288 97.4395C154.51 102.309 150.804 112.434 147.177 116.818C147.063 116.953 146.956 117.082 146.841 117.203L147.034 116.596C147.032 116.563 147.032 116.529 147.034 116.496C150.34 105.786 149.89 99.9671 149.54 92.5486C149.497 91.5205 148.698 86.5011 149.205 84.8303C149.396 84.7377 149.603 84.6838 149.815 84.6715C150.027 84.6593 150.239 84.689 150.44 84.7589C151.275 87.772 153.781 90.0711 155.438 92.7343C154.681 93.8838 153.917 95.0262 153.153 96.1758C154.117 96.5613 155.331 97.004 156.288 97.4395Z" fill="white"/>
<path opacity="0.3" d="M123.85 94.0481C123.85 94.0481 126.042 98.9747 131.333 106.25C136.71 113.64 139.73 113.64 139.73 113.64L143.671 114.826C143.671 114.826 142.657 96.1901 131.205 93.4055C127.806 92.5558 123.122 94.0695 123.85 94.0481Z" fill="black"/>
<path d="M168.647 106.179L162.756 106.45V109.692L168.647 108.864V106.179Z" fill="#DD8C6A"/>
<path d="M166.955 108.314C166.833 111.17 170.318 111.82 170.318 111.82L172.131 113.305C172.421 113.554 172.791 113.691 173.174 113.691C173.556 113.691 173.926 113.554 174.216 113.305L175.715 112.027L175.758 111.991C176.07 111.705 176.256 111.306 176.275 110.883C176.293 110.461 176.144 110.047 175.858 109.735L174.637 108.385C174.144 107.834 173.537 107.396 172.859 107.1L168.647 106.179L166.955 108.314Z" fill="#DD8C6A"/>
<path d="M124.429 90.1211C123.215 92.4915 123.758 95.2333 125.214 97.461C128.527 102.502 139.451 109.199 141.636 110.677C146.577 114.047 166.626 110.12 166.626 110.12L166.919 105.172L145.499 104.101C145.499 104.101 138.309 92.1274 133.361 88.4717C130.869 86.6439 126.128 86.801 124.429 90.1211Z" fill="#263238"/>
<path d="M140.287 60.4972C139.954 60.4589 139.617 60.4919 139.298 60.5941C138.979 60.6963 138.686 60.8653 138.438 61.0898C137.018 62.1583 136.026 63.6973 135.639 65.4309C135.547 65.7844 135.547 66.1555 135.639 66.509C135.678 66.6895 135.77 66.854 135.904 66.9813C136.037 67.1087 136.206 67.1929 136.388 67.223C136.89 66.6989 137.516 66.3107 138.209 66.0949C139.605 65.6369 141.038 65.3047 142.493 65.1024C145.135 64.7008 147.743 64.1041 150.297 63.3174C150.804 63.1675 151.382 62.939 151.518 62.4321C151.654 61.9252 150.561 61.0969 150.74 60.9327C151.018 60.6614 151.404 60.4186 151.404 60.0331C151.4 59.8801 151.358 59.7305 151.282 59.5975C151.176 59.348 151.022 59.1218 150.828 58.9319C150.635 58.742 150.406 58.5921 150.154 58.4908C149.898 58.4033 149.619 58.4192 149.374 58.5353C149.13 58.6514 148.941 58.8583 148.848 59.112C148.769 58.6494 148.664 58.1917 148.533 57.7411C148.408 57.5338 148.209 57.381 147.977 57.3127C147.62 57.2109 147.245 57.198 146.883 57.2752C146.52 57.3523 146.182 57.5172 145.899 57.7554C145.333 58.2368 144.85 58.8086 144.471 59.4476C143.728 60.5328 141.586 60.797 140.287 60.4972Z" fill="#263238"/>
<path d="M146.956 74.1132C146.945 74.1025 146.936 74.0898 146.93 74.0757C146.924 74.0615 146.921 74.0464 146.921 74.0311C146.921 74.0157 146.924 74.0006 146.93 73.9865C146.936 73.9724 146.945 73.9596 146.956 73.949C146.976 73.9293 147.002 73.9183 147.031 73.9183C147.059 73.9183 147.085 73.9293 147.105 73.949C147.432 74.2927 147.835 74.5547 148.281 74.7135C148.728 74.8723 149.206 74.9235 149.676 74.8629C149.707 74.8608 149.738 74.8708 149.762 74.8908C149.785 74.9107 149.801 74.939 149.804 74.97C149.806 74.9992 149.797 75.028 149.779 75.0506C149.76 75.0732 149.733 75.0878 149.704 75.0914C149.201 75.158 148.69 75.104 148.212 74.9339C147.734 74.7639 147.303 74.4825 146.956 74.1132Z" fill="#263238"/>
<path d="M136.881 83.7807L138.695 83.2095C140.543 85.2427 142.841 86.815 145.406 87.8005C144.247 88.5006 143.323 89.5295 142.75 90.7565C136.681 88.3574 136.881 83.7807 136.881 83.7807Z" fill="white"/>
<path d="M148.969 84.0948L147.32 83.6593C147.32 83.6593 146.477 87.0936 144.742 87.5006C147.677 88.8072 148.098 90.3066 148.098 90.3066C152.468 89.1285 148.969 84.0948 148.969 84.0948Z" fill="white"/>
<path opacity="0.3" d="M145.542 118.453C145.532 118.583 145.484 118.707 145.403 118.81C145.323 118.913 145.214 118.99 145.09 119.031C144.966 119.073 144.833 119.077 144.707 119.043C144.581 119.009 144.468 118.938 144.381 118.84C144.295 118.742 144.24 118.621 144.222 118.492C144.204 118.362 144.225 118.23 144.282 118.113C144.339 117.995 144.429 117.897 144.541 117.83C144.654 117.764 144.783 117.732 144.913 117.739C145.002 117.744 145.088 117.767 145.167 117.806C145.247 117.845 145.318 117.899 145.376 117.965C145.434 118.031 145.479 118.109 145.507 118.192C145.536 118.276 145.548 118.364 145.542 118.453Z" fill="white"/>
</svg>
