<svg width="1421" height="463" viewBox="0 0 1421 463" fill="none" xmlns="http://www.w3.org/2000/svg">
<g clip-path="url(#clip0_405_1655)">
<rect x="-19" width="1440" height="463" fill="#EDFFFD"/>
<g clip-path="url(#clip1_405_1655)">
<path d="M306.49 -7.24005C302.32 1.42995 300.49 11.1799 302.14 20.6099C304.5 33.9599 314.61 46.1299 327.84 49.0699C331.599 50.0457 335.564 49.868 339.22 48.5599C344.32 46.4899 347.87 41.3999 348.86 35.9799C350.91 24.8299 342.74 13.6999 332.39 9.05995C322.04 4.41995 310.14 4.94995 298.93 6.64995C277.93 9.81995 255.14 18.9599 247.34 38.6499C245.34 43.6499 244.56 49.3299 246.71 54.2099C248.86 59.0899 254.71 62.5399 259.71 60.6999C263.95 59.1399 266.32 54.3999 266.51 49.8899C266.97 39.1899 257.15 30.1099 246.62 28.2399C236.09 26.3699 225.31 30.1299 215.83 35.1299C206.35 40.1299 197.48 46.3399 187.47 50.1299C166.64 57.9799 142.86 54.1799 122.64 44.8599C111.74 39.8599 101.15 32.8599 95.32 22.3799C89.49 11.8999 89.81 -2.74006 98.64 -10.8701C110.83 -22.0801 132.64 -14.3501 139.87 0.559946C147.1 15.4699 142.98 33.5599 135.18 48.1999C124.04 69.0599 104.04 86.5999 80.49 88.6199C56.94 90.6399 31.65 72.8399 30.86 49.2099C30.578 45.1301 31.444 41.0529 33.36 37.4399C39.1 27.5999 54.67 27.4999 63.08 35.1899C71.49 42.8799 73.73 55.3699 72.64 66.6999C71.4739 77.7787 67.6727 88.4173 61.5541 97.7266C55.4355 107.036 47.1774 114.745 37.47 120.21C28.8506 124.856 19.3525 127.642 9.5893 128.387C-0.173916 129.133 -9.985 127.823 -19.21 124.54" stroke="#BEEDE8" stroke-width="2" stroke-miterlimit="10" stroke-dasharray="7.98 7.98"/>
</g>
<g clip-path="url(#clip2_405_1655)">
<path d="M1369.15 475.78C1369.15 475.78 1360.76 367.98 1303.15 374.27C1217.32 383.64 1290.34 468.27 1301.46 424.89C1309.58 393.22 1217.19 380.68 1230.31 475.78" stroke="#BEEDE8" stroke-width="2" stroke-miterlimit="10" stroke-dasharray="8 8"/>
</g>
</g>
<defs>
<clipPath id="clip0_405_1655">
<rect width="1440" height="463" fill="white" transform="translate(-19)"/>
</clipPath>
<clipPath id="clip1_405_1655">
<rect width="377.18" height="147.59" fill="white" transform="translate(-27 -18)"/>
</clipPath>
<clipPath id="clip2_405_1655">
<rect width="142.14" height="102.91" fill="white" transform="translate(1228 373)"/>
</clipPath>
</defs>
</svg>
