<svg width="1402" height="589" viewBox="0 0 1402 589" fill="none" xmlns="http://www.w3.org/2000/svg">
<g clip-path="url(#clip0_259_1922)">
<path d="M1021.99 745.544H1008.21C1008.62 699.029 988.544 652.414 953.073 617.614C917.601 582.815 872.803 565.638 829.98 570.453C817.666 571.843 804.387 574.623 791.521 577.255C748.515 586.19 704.221 595.424 674.217 561.269C658.09 542.753 653.725 518.03 649.544 494.152C647.589 479.558 644.153 465.241 639.297 451.459C616.324 394.866 543.726 379.576 487.211 393.873C457.667 401.369 428.904 414.674 401.105 427.581C373.307 440.488 344.268 453.892 313.805 461.735C250.581 478.117 172.379 461.288 145.224 397.199C134.518 371.981 133.829 344.081 133.139 317.075C132.45 290.07 131.853 264.106 121.515 241.519C98.541 191.28 35.7767 177.479 -11.7331 193.117C-63.3781 209.846 -105.052 252.887 -141.443 290.814L-151 280.091C-113.277 240.973 -70.5459 196.84 -15.9143 178.671C37.3848 161.196 107.868 177.429 133.875 234.767C145.545 260.433 146.234 289.375 146.924 316.926C147.567 343.585 148.21 368.803 157.767 391.391C181.798 447.934 252.833 462.381 310.589 447.388C339.719 439.843 368.023 426.737 395.454 414.028C423.803 400.922 453.118 387.32 483.857 379.526C547.264 363.442 625.283 381.016 651.657 445.601C657.069 460.339 660.908 475.695 663.098 491.372C667.141 514.158 670.955 535.703 684.326 550.944C708.908 579.141 747.779 571.099 788.948 562.56C802.089 559.83 815.69 557 828.601 555.561C875.376 550.298 924.08 568.865 962.4 606.494C1000.72 644.124 1022.41 694.76 1021.99 745.544Z" fill="#BEEDE8" fill-opacity="0.2"/>
<path d="M1564.73 759.536L1555.76 749.623C1579.01 725.192 1590.9 688.826 1588.31 649.759C1585.73 610.691 1569.28 576.509 1543.11 555.838C1531.26 547.125 1518.76 539.489 1505.74 533.01C1483.21 520.91 1459.94 508.452 1444.92 485.477C1425.04 455.095 1426.61 417.811 1427.85 381.604C1428.68 360.052 1429.55 337.776 1425.81 317.441C1413.79 251.178 1354.13 208.697 1302.38 190.969C1264.98 178.113 1224.96 173.131 1186.23 168.316C1164.61 165.544 1142.21 162.826 1120.34 158.669C1042.79 144.016 987.86 111.961 957.082 63.4126C922.989 9.75561 921.6 -59.1348 924.758 -119.477C925.19 -127.598 925.664 -135.8 926.176 -143.978C929.308 -196.588 932.597 -250.971 917.519 -300.595C900.941 -355.106 851.751 -406.404 798.164 -397.917L796.269 -411.601C858.884 -421.576 911.789 -364.064 929.743 -304.902C945.605 -252.76 942.258 -196.971 939.035 -143.081C938.523 -134.903 938.054 -126.805 937.623 -118.684C934.597 -60.7175 935.683 5.31249 967.563 55.5083C996.309 100.814 1048.43 130.904 1122.41 144.891C1143.88 148.959 1166.1 151.728 1187.58 154.407C1226.9 159.322 1267.57 164.388 1306.14 177.652C1361.4 196.603 1425.1 242.56 1438.32 314.644C1442.31 336.634 1441.45 359.719 1440.58 382.098C1439.25 417.449 1437.97 450.854 1455.29 477.399C1468.43 497.495 1489.24 508.632 1511.51 520.57C1525.24 527.43 1538.41 535.519 1550.88 544.751C1580.13 567.82 1598.57 605.801 1601.37 648.906C1604.17 692.01 1590.71 732.317 1564.73 759.536Z" fill="#BEEDE8" fill-opacity="0.2"/>
</g>
<defs>
<clipPath id="clip0_259_1922">
<rect width="1440" height="589" fill="white" transform="translate(-38)"/>
</clipPath>
</defs>
</svg>
