<svg width="357" height="357" viewBox="0 0 357 357" fill="none" xmlns="http://www.w3.org/2000/svg">
<path d="M357 273.034H0V273.212H357V273.034Z" fill="#EBEBEB"/>
<path d="M56.0205 279.831H37.4565V280.009H56.0205V279.831Z" fill="#EBEBEB"/>
<path d="M143.107 277.896H104.48V278.074H143.107V277.896Z" fill="#EBEBEB"/>
<path d="M75.5269 286.464H56.7344V286.642H75.5269V286.464Z" fill="#EBEBEB"/>
<path d="M321.229 285.264H307.498V285.443H321.229V285.264Z" fill="#EBEBEB"/>
<path d="M301.137 285.264H279.51V285.443H301.137V285.264Z" fill="#EBEBEB"/>
<path d="M223.332 282.251H184.376V282.43H223.332V282.251Z" fill="#EBEBEB"/>
<path d="M169.218 241.189H31.3518C30.2717 241.187 29.2366 240.757 28.4735 239.993C27.7105 239.228 27.282 238.192 27.282 237.112V43.3113C27.2914 42.2374 27.7241 41.2107 28.4861 40.454C29.2481 39.6973 30.2779 39.2719 31.3518 39.27H169.218C170.299 39.27 171.336 39.6996 172.101 40.4641C172.865 41.2287 173.295 42.2657 173.295 43.347V237.112C173.295 238.194 172.865 239.231 172.101 239.995C171.336 240.76 170.299 241.189 169.218 241.189ZM31.3518 39.4128C30.3191 39.4147 29.3293 39.8263 28.5998 40.5572C27.8702 41.2881 27.4605 42.2786 27.4605 43.3113V237.112C27.4605 238.145 27.8702 239.135 28.5998 239.866C29.3293 240.597 30.3191 241.009 31.3518 241.011H169.218C170.251 241.009 171.242 240.597 171.973 239.867C172.703 239.136 173.115 238.146 173.116 237.112V43.3113C173.115 42.2779 172.703 41.2874 171.973 40.5567C171.242 39.826 170.251 39.4147 169.218 39.4128H31.3518Z" fill="#EBEBEB"/>
<path d="M323.663 241.189H185.79C184.709 241.187 183.673 240.757 182.909 239.993C182.145 239.229 181.715 238.193 181.713 237.112V43.3113C181.724 42.2368 182.159 41.21 182.922 40.4535C183.685 39.6971 184.715 39.2718 185.79 39.27H323.663C324.736 39.2737 325.764 39.7 326.524 40.4565C327.285 41.213 327.717 42.2387 327.726 43.3113V237.112C327.726 238.191 327.298 239.226 326.537 239.99C325.775 240.754 324.742 241.185 323.663 241.189ZM185.79 39.4128C184.757 39.4147 183.766 39.826 183.035 40.5567C182.305 41.2874 181.893 42.2779 181.892 43.3113V237.112C181.893 238.146 182.305 239.136 183.035 239.867C183.766 240.597 184.757 241.009 185.79 241.011H323.663C324.697 241.009 325.687 240.597 326.418 239.867C327.149 239.136 327.56 238.146 327.562 237.112V43.3113C327.56 42.2779 327.149 41.2874 326.418 40.5567C325.687 39.826 324.697 39.4147 323.663 39.4128H185.79Z" fill="#EBEBEB"/>
<path d="M315.052 198.021H295.417V273.034H315.052V198.021Z" fill="#E6E6E6"/>
<path d="M311.325 273.034H315.052V262.424H307.413L311.325 273.034Z" fill="#F0F0F0"/>
<path d="M203.012 198.021H183.377V273.034H203.012V198.021Z" fill="#E6E6E6"/>
<path d="M315.052 198.021H199.756V266.522H315.052V198.021Z" fill="#F0F0F0"/>
<path d="M203.59 201.491V253.256H237.769V201.491H203.59Z" fill="#E6E6E6"/>
<path d="M224.06 204.461H217.299C215.845 204.461 214.407 204.166 213.072 203.593C211.736 203.02 210.531 202.18 209.53 201.127H231.829C230.828 202.18 229.623 203.02 228.287 203.593C226.952 204.166 225.514 204.461 224.06 204.461Z" fill="#F0F0F0"/>
<path d="M240.318 201.498V253.263H274.497V201.498H240.318Z" fill="#E6E6E6"/>
<path d="M261.131 204.461H254.37C252.917 204.46 251.481 204.165 250.146 203.591C248.812 203.018 247.608 202.18 246.608 201.127H268.899C267.899 202.18 266.694 203.02 265.358 203.593C264.023 204.166 262.585 204.461 261.131 204.461Z" fill="#F0F0F0"/>
<path d="M277.039 201.498V253.263H311.218V201.498H277.039Z" fill="#E6E6E6"/>
<path d="M297.859 204.461H291.098C289.644 204.461 288.206 204.166 286.871 203.593C285.535 203.02 284.33 202.18 283.329 201.127H305.592C304.595 202.176 303.396 203.013 302.067 203.586C300.738 204.159 299.307 204.457 297.859 204.461Z" fill="#F0F0F0"/>
<path d="M203.483 273.034H199.756V262.424H207.396L203.483 273.034Z" fill="#F0F0F0"/>
<path d="M156.909 52.8289H48.7376V154.145H156.909V52.8289Z" fill="#E6E6E6"/>
<path d="M160.793 52.8289H50.5512V154.145H160.793V52.8289Z" fill="#F0F0F0"/>
<path d="M156.909 154.146H48.7376V161.364H156.909V154.146Z" fill="#E6E6E6"/>
<path d="M167.262 154.146H57.02V161.364H167.262V154.146Z" fill="#F0F0F0"/>
<path d="M155.359 148.705V58.2696L55.9919 58.2696V148.705H155.359Z" fill="#FAFAFA"/>
<path d="M66.3949 148.705L98.3178 58.2696H113.383L81.4603 148.705H66.3949Z" fill="white"/>
<path d="M58.5052 118.024C58.6093 118.024 58.7092 117.983 58.7829 117.909C58.8565 117.836 58.8979 117.736 58.8979 117.631V61.8038C58.896 61.7009 58.8538 61.6029 58.7804 61.5308C58.7069 61.4586 58.6081 61.4183 58.5052 61.4183C58.4029 61.4183 58.3049 61.4589 58.2326 61.5312C58.1602 61.6035 58.1196 61.7016 58.1196 61.8038V117.631C58.1196 117.734 58.16 117.833 58.2321 117.907C58.3042 117.98 58.4023 118.022 58.5052 118.024Z" fill="#F0F0F0"/>
<path d="M84.7018 148.705L116.625 58.2696H122.494L90.5781 148.705H84.7018Z" fill="white"/>
<path d="M155.352 148.705V58.2696H154.659V148.705H155.352Z" fill="#E6E6E6"/>
<path opacity="0.5" d="M162.078 67.6444H53.907L53.4072 60.383H161.578L162.078 67.6444Z" fill="#E6E6E6"/>
<path opacity="0.5" d="M162.078 72.9565H53.907L53.4072 65.6951H161.578L162.078 72.9565Z" fill="#E6E6E6"/>
<path opacity="0.5" d="M162.078 79.3326H53.907L53.4072 72.0712H161.578L162.078 79.3326Z" fill="#E6E6E6"/>
<path opacity="0.5" d="M162.078 86.4297H53.907L53.4072 79.1683H161.578L162.078 86.4297Z" fill="#E6E6E6"/>
<path opacity="0.5" d="M162.078 94.9334H53.907L53.4072 87.6721H161.578L162.078 94.9334Z" fill="#E6E6E6"/>
<path opacity="0.5" d="M162.078 104.494H53.907L53.4072 97.2325H161.578L162.078 104.494Z" fill="#E6E6E6"/>
<path d="M163.242 205.775H131.226V273.034H163.242V205.775Z" fill="#E6E6E6"/>
<path d="M160.022 273.034H163.242V263.873H156.644L160.022 273.034Z" fill="#F0F0F0"/>
<path d="M84.4876 205.775H52.4719V273.034H84.4876V205.775Z" fill="#E6E6E6"/>
<path d="M163.235 205.775H81.6745V267.414H163.235V205.775Z" fill="#F0F0F0"/>
<path d="M160.743 208.502H84.1735V225.41H160.743V208.502Z" fill="#E6E6E6"/>
<path d="M126.071 213.757H118.838C115.697 213.757 112.698 211.672 110.534 207.988H134.382C132.218 211.672 129.234 213.757 126.071 213.757Z" fill="#F0F0F0"/>
<path d="M84.8946 273.034H81.6745V263.873H88.2719L84.8946 273.034Z" fill="#F0F0F0"/>
<path d="M160.743 228.137H84.1735V245.045H160.743V228.137Z" fill="#E6E6E6"/>
<path d="M126.071 233.392H118.838C115.697 233.392 112.698 231.307 110.534 227.623H134.382C132.218 231.336 129.234 233.392 126.071 233.392Z" fill="#F0F0F0"/>
<path d="M160.743 247.772H84.1735V264.68H160.743V247.772Z" fill="#E6E6E6"/>
<path d="M126.071 253.027H118.838C115.697 253.027 112.698 250.942 110.534 247.258H134.382C132.218 250.942 129.234 253.027 126.071 253.027Z" fill="#F0F0F0"/>
<path d="M292.504 66.7376H230.344V149.876H292.504V66.7376Z" fill="#E6E6E6"/>
<path d="M296.546 66.7376H231.215V149.876H296.546V66.7376Z" fill="#F0F0F0"/>
<path d="M287.499 140.829V75.7769H240.254V140.829H287.499Z" fill="white"/>
<path d="M287.499 140.829V75.7768H286.792V140.829H287.499Z" fill="#E6E6E6"/>
<path d="M264.758 94.5479H250.614C250.475 94.5479 250.342 94.6026 250.243 94.7001C250.144 94.7977 250.088 94.9302 250.086 95.0691V109.185C250.097 112.59 251.455 115.852 253.862 118.26C256.27 120.668 259.533 122.026 262.938 122.037H277.053C277.194 122.037 277.328 121.981 277.427 121.882C277.526 121.783 277.582 121.649 277.582 121.509V107.421C277.578 104.017 276.227 100.752 273.825 98.3402C271.422 95.9282 268.163 94.5649 264.758 94.5479ZM262.995 121.016C259.859 121.012 256.852 119.764 254.636 117.546C252.419 115.328 251.173 112.321 251.171 109.185V95.6189H264.737C267.872 95.6227 270.878 96.8694 273.096 99.0858C275.314 101.302 276.562 104.307 276.568 107.443L262.995 121.016Z" fill="#F0F0F0"/>
<path d="M178.5 305.278C254.957 305.278 316.937 301.659 316.937 297.195C316.937 292.732 254.957 289.113 178.5 289.113C102.043 289.113 40.0625 292.732 40.0625 297.195C40.0625 301.659 102.043 305.278 178.5 305.278Z" fill="#F5F5F5"/>
<path d="M176.065 62.832C175.416 58.8907 178.079 55.692 182.02 55.692H153.224C149.283 55.692 146.62 58.8836 147.27 62.832H176.065Z" fill="#31B5A7"/>
<path opacity="0.3" d="M176.065 62.832C175.416 58.8907 178.079 55.692 182.02 55.692H153.224C149.283 55.692 146.62 58.8836 147.27 62.832H176.065Z" fill="black"/>
<path d="M182.02 55.692H153.224C155.217 55.7582 157.128 56.5016 158.641 57.7996C160.155 59.0976 161.181 60.8727 161.55 62.832L167.854 100.903C168.225 102.861 169.251 104.636 170.764 105.933C172.277 107.231 174.187 107.975 176.179 108.043H190.702C194.644 108.043 197.307 104.844 196.657 100.903L190.345 62.832C189.976 60.8727 188.95 59.0976 187.437 57.7996C185.923 56.5016 184.013 55.7582 182.02 55.692Z" fill="#31B5A7"/>
<path d="M182.134 100.924C182.784 104.865 180.121 108.064 176.18 108.064H204.975C205.871 108.094 206.763 107.92 207.581 107.553C208.4 107.187 209.124 106.638 209.698 105.95C210.272 105.261 210.682 104.45 210.895 103.579C211.109 102.708 211.121 101.8 210.93 100.924H182.134Z" fill="#31B5A7"/>
<path opacity="0.3" d="M182.134 100.924C182.784 104.865 180.121 108.064 176.18 108.064H204.975C205.871 108.094 206.763 107.92 207.581 107.553C208.4 107.187 209.124 106.638 209.698 105.95C210.272 105.261 210.682 104.45 210.895 103.579C211.109 102.708 211.121 101.8 210.93 100.924H182.134Z" fill="black"/>
<path d="M186.768 66.1378H166.212C166.093 66.1335 165.978 66.0888 165.887 66.011C165.797 65.9331 165.735 65.8268 165.712 65.7094C165.7 65.6568 165.7 65.6021 165.713 65.5495C165.725 65.497 165.75 65.448 165.784 65.4065C165.819 65.365 165.863 65.3321 165.912 65.3103C165.962 65.2885 166.015 65.2785 166.069 65.281H186.625C186.745 65.2853 186.859 65.3301 186.95 65.4079C187.041 65.4857 187.103 65.592 187.125 65.7094C187.137 65.762 187.137 65.8168 187.125 65.8693C187.112 65.9219 187.088 65.9708 187.053 66.0123C187.018 66.0538 186.975 66.0867 186.925 66.1085C186.876 66.1303 186.822 66.1403 186.768 66.1378Z" fill="white"/>
<path d="M175.38 69.1081H166.705C166.585 69.1038 166.471 69.0591 166.38 68.9812C166.289 68.9034 166.227 68.7971 166.205 68.6797C166.193 68.6271 166.193 68.5723 166.205 68.5198C166.218 68.4672 166.242 68.4183 166.277 68.3768C166.312 68.3353 166.355 68.3024 166.405 68.2806C166.454 68.2588 166.508 68.2488 166.562 68.2513H175.237C175.357 68.2556 175.471 68.3003 175.562 68.3781C175.653 68.456 175.714 68.5623 175.737 68.6797C175.748 68.7322 175.746 68.7864 175.733 68.8383C175.72 68.8902 175.696 68.9386 175.661 68.9797C175.627 69.0208 175.584 69.0537 175.535 69.076C175.486 69.0982 175.433 69.1092 175.38 69.1081Z" fill="white"/>
<path d="M183.405 69.1081H177.408C177.289 69.1035 177.175 69.0585 177.086 68.9806C176.996 68.9027 176.936 68.7965 176.915 68.6797C176.903 68.6277 176.903 68.5736 176.915 68.5216C176.927 68.4696 176.951 68.4211 176.985 68.3797C177.019 68.3384 177.061 68.3053 177.11 68.283C177.158 68.2608 177.211 68.2499 177.265 68.2513H183.262C183.381 68.2559 183.495 68.3009 183.584 68.3788C183.674 68.4567 183.734 68.5628 183.755 68.6797C183.767 68.7317 183.767 68.7858 183.755 68.8378C183.743 68.8898 183.719 68.9383 183.685 68.9796C183.651 69.021 183.609 69.0541 183.56 69.0763C183.512 69.0986 183.459 69.1094 183.405 69.1081Z" fill="white"/>
<path d="M187.782 72.114H167.197C167.079 72.1113 166.964 72.0681 166.873 71.9915C166.782 71.9148 166.72 71.8094 166.698 71.6928C166.685 71.6401 166.686 71.5854 166.698 71.5328C166.711 71.4803 166.735 71.4314 166.77 71.3899C166.804 71.3484 166.848 71.3154 166.897 71.2937C166.947 71.2719 167.001 71.2619 167.055 71.2644H187.611C187.73 71.2687 187.845 71.3134 187.935 71.3912C188.026 71.469 188.088 71.5753 188.11 71.6928C188.121 71.7425 188.12 71.794 188.109 71.8435C188.097 71.893 188.075 71.9394 188.044 71.9795C188.013 72.0196 187.973 72.0524 187.928 72.0757C187.883 72.0989 187.833 72.112 187.782 72.114Z" fill="white"/>
<path d="M186.218 75.0557H167.69C167.571 75.0514 167.456 75.0066 167.365 74.9288C167.274 74.851 167.213 74.7447 167.19 74.6273C167.179 74.5748 167.181 74.5206 167.194 74.4687C167.207 74.4167 167.231 74.3684 167.266 74.3272C167.3 74.2861 167.343 74.2532 167.392 74.231C167.441 74.2088 167.494 74.1978 167.547 74.1989H186.111C186.231 74.2032 186.345 74.2479 186.436 74.3257C186.527 74.4035 186.588 74.5098 186.611 74.6273C186.623 74.6829 186.621 74.7405 186.606 74.7953C186.591 74.8502 186.563 74.9007 186.525 74.9426C186.487 74.9845 186.439 75.0166 186.385 75.0363C186.332 75.0559 186.275 75.0626 186.218 75.0557Z" fill="white"/>
<path d="M180.642 78.0259H168.183C168.063 78.0216 167.949 77.9769 167.858 77.8991C167.767 77.8213 167.705 77.715 167.683 77.5975C167.672 77.5454 167.673 77.4915 167.686 77.4398C167.699 77.3882 167.724 77.3403 167.758 77.2996C167.793 77.259 167.836 77.2268 167.885 77.2054C167.934 77.184 167.987 77.1741 168.04 77.1763H180.506C180.624 77.1815 180.738 77.2256 180.828 77.3018C180.918 77.378 180.981 77.482 181.006 77.5975C181.017 77.6506 181.016 77.7055 181.002 77.7579C180.989 77.8104 180.963 77.8592 180.928 77.9004C180.893 77.9417 180.849 77.9745 180.8 77.9962C180.75 78.018 180.696 78.0281 180.642 78.0259Z" fill="white"/>
<path d="M189.21 81.0034H168.675C168.556 80.999 168.441 80.9543 168.351 80.8765C168.26 80.7987 168.198 80.6924 168.176 80.575C168.165 80.5225 168.166 80.4683 168.179 80.4163C168.192 80.3644 168.217 80.3161 168.251 80.2749C168.285 80.2338 168.328 80.2009 168.377 80.1787C168.426 80.1564 168.479 80.1455 168.533 80.1466H189.089C189.208 80.1509 189.323 80.1956 189.413 80.2734C189.504 80.3512 189.566 80.4575 189.588 80.575C189.601 80.6295 189.601 80.6863 189.587 80.7406C189.574 80.7949 189.547 80.8452 189.51 80.8872C189.473 80.9292 189.427 80.9616 189.374 80.9818C189.322 81.0021 189.266 81.0094 189.21 81.0034Z" fill="white"/>
<path d="M189.724 83.9736H169.168C169.049 83.9693 168.934 83.9245 168.843 83.8467C168.752 83.7689 168.691 83.6626 168.668 83.5452C168.658 83.4927 168.659 83.4385 168.672 83.3866C168.685 83.3346 168.709 83.2863 168.744 83.2452C168.778 83.204 168.821 83.1711 168.87 83.1489C168.919 83.1267 168.972 83.1157 169.025 83.1168H189.588C189.707 83.1214 189.821 83.1664 189.91 83.2443C190 83.3222 190.06 83.4283 190.081 83.5452C190.093 83.5978 190.093 83.6525 190.081 83.7051C190.068 83.7576 190.044 83.8066 190.009 83.8481C189.974 83.8896 189.931 83.9225 189.881 83.9443C189.832 83.966 189.778 83.9761 189.724 83.9736Z" fill="white"/>
<path d="M182.127 86.9438H169.661C169.543 86.9386 169.429 86.8945 169.339 86.8183C169.249 86.7421 169.186 86.6381 169.161 86.5225C169.15 86.4701 169.151 86.4158 169.164 86.3639C169.177 86.312 169.202 86.2636 169.236 86.2225C169.271 86.1814 169.314 86.1485 169.362 86.1262C169.411 86.104 169.464 86.093 169.518 86.0941H181.984C182.104 86.0984 182.218 86.1432 182.309 86.221C182.4 86.2988 182.462 86.4051 182.484 86.5225C182.495 86.5747 182.494 86.6286 182.481 86.6802C182.468 86.7318 182.443 86.7798 182.409 86.8204C182.374 86.8611 182.331 86.8933 182.282 86.9147C182.233 86.936 182.18 86.946 182.127 86.9438Z" fill="white"/>
<path d="M193.929 95.1186L195.215 95.9164L214.947 64.1041L213.661 63.3063L193.929 95.1186Z" fill="#263238"/>
<path opacity="0.3" d="M193.929 95.1186L195.215 95.9164L214.947 64.1041L213.661 63.3063L193.929 95.1186Z" fill="black"/>
<path d="M191.361 93.5282L192.647 94.3261L212.379 62.5138L211.093 61.7159L191.361 93.5282Z" fill="#263238"/>
<path opacity="0.3" d="M191.361 93.5282L192.647 94.3261L212.379 62.5138L211.093 61.7159L191.361 93.5282Z" fill="black"/>
<path d="M192.654 94.3204L193.94 95.1182L213.672 63.3059L212.386 62.5081L192.654 94.3204Z" fill="#263238"/>
<path d="M191.331 96.5899L192.487 97.3111L195.222 95.9188L191.366 93.5269L191.331 96.5899Z" fill="#FF8B7B"/>
<path d="M191.316 97.9108L192.487 97.311L191.331 96.5899L191.316 97.9108Z" fill="#263238"/>
<path d="M190.638 98.175H190.588C189.631 97.7809 188.785 97.1582 188.125 96.3615C187.71 95.9171 187.259 95.5086 186.775 95.1405C186.702 95.0795 186.61 95.0461 186.515 95.0461C186.419 95.0461 186.327 95.0795 186.254 95.1405C186.196 95.2038 186.164 95.2866 186.164 95.3726C186.164 95.4585 186.196 95.5414 186.254 95.6046C186.425 95.8617 186.618 96.1044 186.811 96.3186C186.888 96.4036 186.937 96.5113 186.948 96.6257C186.96 96.7402 186.934 96.8553 186.875 96.9541C186.813 97.0409 186.725 97.1052 186.623 97.1374C186.521 97.1696 186.412 97.1679 186.311 97.1326C186.04 97.0439 185.773 96.9415 185.511 96.8256C185.488 96.805 185.458 96.7941 185.427 96.795C185.396 96.7959 185.367 96.8086 185.345 96.8305C185.323 96.8524 185.31 96.8818 185.309 96.9127C185.309 96.9437 185.32 96.9738 185.34 96.9969L185.376 97.0897C185.418 97.1839 185.435 97.2874 185.425 97.3901C185.415 97.4928 185.378 97.5911 185.319 97.6752C185.258 97.7559 185.177 97.8198 185.085 97.861C184.992 97.9021 184.891 97.9193 184.79 97.9108C181.648 97.7626 178.5 97.7745 175.358 97.9465C175.311 97.9465 175.266 97.9277 175.232 97.8943C175.199 97.8608 175.18 97.8154 175.18 97.768C175.18 97.7207 175.199 97.6753 175.232 97.6418C175.266 97.6083 175.311 97.5895 175.358 97.5895C178.512 97.4175 181.672 97.4056 184.826 97.5538C184.866 97.5606 184.907 97.5562 184.945 97.5411C184.983 97.526 185.016 97.5008 185.04 97.4682C185.062 97.4313 185.073 97.3894 185.073 97.3468C185.073 97.3042 185.062 97.2623 185.04 97.2254L185.005 97.1469C184.955 97.0561 184.935 96.9515 184.95 96.8489C184.965 96.7463 185.012 96.6513 185.085 96.578C185.159 96.5047 185.254 96.4572 185.356 96.4426C185.459 96.428 185.563 96.4472 185.654 96.4971C185.899 96.6125 186.152 96.7103 186.411 96.7899C186.434 96.8072 186.461 96.8167 186.49 96.8167C186.518 96.8167 186.546 96.8072 186.568 96.7899C186.586 96.7563 186.592 96.7177 186.586 96.6802C186.579 96.6427 186.561 96.6085 186.532 96.5828C186.325 96.34 186.133 96.083 185.954 95.826C185.851 95.6922 185.799 95.5262 185.807 95.3576C185.815 95.189 185.882 95.0286 185.997 94.9049C186.129 94.7825 186.302 94.7144 186.482 94.7144C186.663 94.7144 186.836 94.7825 186.968 94.9049C187.483 95.2805 187.961 95.7036 188.396 96.1687C189.007 96.8836 189.774 97.448 190.638 97.818C190.661 97.8253 190.682 97.837 190.7 97.8525C190.718 97.868 190.733 97.8869 190.743 97.9082C190.754 97.9295 190.76 97.9527 190.762 97.9764C190.763 98.0002 190.76 98.024 190.752 98.0465C190.746 98.0758 190.732 98.103 190.712 98.1254C190.692 98.1479 190.666 98.165 190.638 98.175Z" fill="white"/>
<path d="M187.575 124.336L192.352 116.075H182.805L187.575 124.336Z" fill="#31B5A7"/>
<path d="M241.175 100.074C239.145 98.2781 236.501 97.3322 233.792 97.4325C232.057 93.9339 228.48 91.8918 224.696 92.5844C219.269 93.5769 217.613 100.096 221.383 102.473C222.63 103.263 223.98 103.876 225.396 104.294V104.465C223.179 105.265 221.239 106.687 219.811 108.562C218.382 110.436 217.525 112.683 217.342 115.033C216.785 123.115 225.467 127.842 230.194 123.344C230.847 122.723 231.467 122.068 232.05 121.38C232.964 122.665 233.949 123.979 235.013 125.35C246.823 119.909 248.815 106.664 241.175 100.074Z" fill="#263238"/>
<path d="M217.434 131.497C217.363 132.497 217.277 133.368 217.149 134.282C217.02 135.196 216.899 136.081 216.749 136.974C216.449 138.766 216.035 140.544 215.614 142.293C214.745 145.852 213.53 149.317 211.987 152.639L211.837 152.953C211.78 153.074 211.765 153.117 211.658 153.331C211.479 153.685 211.267 154.019 211.023 154.331C210.563 154.896 210.01 155.379 209.388 155.759C208.36 156.372 207.226 156.786 206.046 156.98C204.101 157.28 202.123 157.306 200.17 157.059C196.555 156.615 193.002 155.76 189.581 154.51L190.367 151.654C192.016 151.903 193.737 152.132 195.422 152.282C197.082 152.463 198.75 152.548 200.42 152.539C201.952 152.567 203.483 152.404 204.975 152.053C205.515 151.923 206.026 151.693 206.482 151.375C206.595 151.293 206.689 151.189 206.76 151.068C206.779 151.032 206.794 150.994 206.803 150.954L207.003 150.44C207.303 149.676 207.595 148.905 207.845 148.112C208.095 147.32 208.359 146.534 208.609 145.742C209.059 144.135 209.502 142.529 209.866 140.886C210.23 139.244 210.53 137.602 210.808 135.946C211.087 134.289 211.308 132.576 211.472 131.033L217.434 131.497Z" fill="#FFB573"/>
<path d="M213.372 124.35C210.958 124.957 209.273 134.875 209.273 134.875L215.914 139.387C215.914 139.387 222.283 129.391 220.426 126.742C218.484 123.979 216.885 123.451 213.372 124.35Z" fill="#263238"/>
<path opacity="0.2" d="M213.586 126.564L211.737 136.552L215.464 139.087L213.586 126.564Z" fill="black"/>
<path d="M187.882 151.782L183.377 153.51L188.467 156.58C188.467 156.58 191.716 154.702 191.631 152.296L191.131 152.011C190.64 151.734 190.094 151.569 189.532 151.53C188.97 151.49 188.406 151.576 187.882 151.782Z" fill="#FFB573"/>
<path opacity="0.1" d="M187.546 152.003L185.319 152.796C184.883 152.943 184.457 153.115 184.041 153.31C184.041 153.31 185.511 153.924 186.247 153.51C187.362 153.594 188.484 153.527 189.581 153.31L187.546 152.003Z" fill="black"/>
<path d="M180.571 156.859L184.405 160.05L188.46 156.609L183.377 153.539L180.571 156.859Z" fill="#FFB573"/>
<path d="M226.402 291.226H220.562L220.169 277.689H226.017L226.402 291.226Z" fill="#FFB573"/>
<path d="M220.362 290.548H226.923C227.037 290.545 227.148 290.584 227.235 290.658C227.322 290.732 227.379 290.835 227.395 290.948L228.109 296.146C228.123 296.277 228.109 296.409 228.068 296.534C228.028 296.66 227.961 296.775 227.873 296.873C227.784 296.971 227.677 297.048 227.556 297.102C227.435 297.155 227.305 297.182 227.173 297.181C224.889 297.145 223.782 297.01 220.89 297.01C219.119 297.01 214.014 297.195 211.558 297.195C209.102 297.195 208.974 294.768 209.995 294.546C214.578 293.561 217.849 292.205 219.355 290.905C219.638 290.671 219.995 290.545 220.362 290.548Z" fill="#263238"/>
<g opacity="0.2">
<path opacity="0.2" d="M220.169 277.689L220.369 284.672H226.217L226.017 277.689H220.169Z" fill="black"/>
</g>
<path d="M213.372 124.35C213.372 124.35 210.587 125.328 216.164 159.629H239.904C239.504 149.969 239.497 144.007 244.117 124.179C240.793 123.491 237.423 123.047 234.035 122.851C230.446 122.594 226.843 122.594 223.254 122.851C218.62 123.272 213.372 124.35 213.372 124.35Z" fill="#263238"/>
<path d="M229.722 133.754C227.761 133.695 225.855 133.092 224.217 132.011C224.198 131.999 224.182 131.982 224.17 131.963C224.157 131.943 224.149 131.922 224.145 131.899C224.141 131.877 224.141 131.853 224.146 131.831C224.151 131.808 224.161 131.787 224.175 131.769C224.188 131.749 224.204 131.732 224.224 131.718C224.244 131.705 224.266 131.696 224.289 131.691C224.312 131.687 224.336 131.687 224.36 131.691C224.383 131.696 224.405 131.705 224.425 131.719C226.175 132.866 228.237 133.445 230.329 133.375C231.108 132.883 236.491 129.291 236.898 123.072C236.9 123.049 236.906 123.026 236.917 123.005C236.928 122.984 236.942 122.965 236.96 122.95C236.978 122.935 236.999 122.923 237.021 122.916C237.044 122.909 237.067 122.906 237.091 122.908C237.114 122.91 237.137 122.916 237.158 122.927C237.179 122.938 237.198 122.952 237.213 122.97C237.228 122.988 237.24 123.009 237.247 123.031C237.254 123.054 237.257 123.077 237.255 123.101C236.841 129.462 231.543 133.047 230.479 133.697C230.454 133.703 230.426 133.703 230.401 133.697C230.172 133.746 229.944 133.754 229.722 133.754Z" fill="white"/>
<path d="M219.619 132.654C219.589 132.664 219.557 132.664 219.526 132.654C219.266 132.452 219.053 132.195 218.902 131.901C218.752 131.607 218.668 131.284 218.655 130.955C218.32 128.777 219.127 124.971 220.797 123.001C220.814 122.984 220.834 122.97 220.856 122.96C220.878 122.951 220.902 122.946 220.926 122.946C220.95 122.946 220.974 122.951 220.996 122.96C221.018 122.97 221.038 122.984 221.054 123.001C221.087 123.034 221.105 123.079 221.105 123.126C221.105 123.172 221.087 123.217 221.054 123.251C219.469 125.1 218.648 128.82 218.97 130.919C219.002 131.462 219.239 131.973 219.634 132.347C220.622 132.175 221.583 131.87 222.49 131.44C222.533 131.423 222.582 131.423 222.626 131.44C222.669 131.457 222.705 131.491 222.725 131.533C222.735 131.555 222.74 131.578 222.74 131.601C222.741 131.625 222.736 131.648 222.728 131.67C222.719 131.692 222.706 131.712 222.69 131.729C222.674 131.746 222.654 131.759 222.632 131.769C221.675 132.205 220.661 132.503 219.619 132.654Z" fill="white"/>
<path d="M232.964 110.713C232.286 114.176 231.607 120.537 234.035 122.851C234.035 122.851 233.085 126.371 226.638 126.371C219.548 126.371 223.254 122.851 223.254 122.851C227.116 121.923 227.016 119.052 226.345 116.361L232.964 110.713Z" fill="#FFB573"/>
<path d="M234.028 122.851C230.439 122.594 226.836 122.594 223.246 122.851L222.532 122.922C221.668 124.55 221.454 127.056 223.518 130.776C223.518 130.776 232.971 126.963 235.434 122.979C234.977 122.908 234.506 122.872 234.028 122.851Z" fill="#FFB573"/>
<path opacity="0.2" d="M230.265 113.019L226.338 116.382C226.508 117.008 226.62 117.649 226.674 118.296C228.152 118.081 230.179 116.461 230.336 114.911C230.43 114.281 230.406 113.64 230.265 113.019Z" fill="black"/>
<path d="M236.705 104.701C235.384 110.349 234.942 112.769 231.557 115.204C226.474 118.874 219.826 116.018 219.419 110.085C219.062 104.751 221.29 96.4043 227.273 95.0905C228.589 94.7938 229.959 94.8382 231.253 95.2194C232.547 95.6006 233.722 96.3059 234.666 97.2685C235.611 98.2312 236.294 99.4192 236.651 100.72C237.008 102.021 237.027 103.391 236.705 104.701Z" fill="#FFB573"/>
<path d="M216.163 159.629C216.163 159.629 211.551 204.661 211.937 222.461C212.336 241.025 219.127 283.287 219.127 283.287H227.052C227.052 283.287 225.802 242.082 226.502 223.875C227.266 204.018 233.571 159.615 233.571 159.615L216.163 159.629Z" fill="#31B5A7"/>
<path opacity="0.3" d="M216.163 159.629C216.163 159.629 211.551 204.661 211.937 222.461C212.336 241.025 219.127 283.287 219.127 283.287H227.052C227.052 283.287 225.802 242.082 226.502 223.875C227.266 204.018 233.571 159.615 233.571 159.615L216.163 159.629Z" fill="white"/>
<path d="M227.716 283.601H218.441L217.763 280.645L228.152 280.281L227.716 283.601Z" fill="#263238"/>
<path opacity="0.2" d="M226.402 170.832C220.576 182.563 225.231 203.961 227.295 211.922C228.351 199.97 230.151 185.347 231.529 174.616C230.622 168.547 229.094 165.427 226.402 170.832Z" fill="black"/>
<path d="M253.727 291.226H247.879L245.737 277.689H251.578L253.727 291.226Z" fill="#FFB573"/>
<path d="M247.594 290.548H254.184C254.301 290.55 254.415 290.59 254.508 290.662C254.6 290.734 254.667 290.835 254.698 290.948L256.126 296.146C256.161 296.269 256.166 296.398 256.142 296.524C256.117 296.649 256.063 296.767 255.985 296.868C255.906 296.969 255.805 297.05 255.69 297.104C255.574 297.158 255.447 297.185 255.319 297.181C253.027 297.145 251.906 297.01 249.015 297.01C247.237 297.01 242.16 297.195 239.733 297.195C237.305 297.195 236.834 294.768 237.826 294.546C242.282 293.561 245.338 292.205 246.716 290.905C246.956 290.684 247.268 290.558 247.594 290.548Z" fill="#263238"/>
<g opacity="0.2">
<path opacity="0.2" d="M245.737 277.689L246.844 284.672H252.692L251.585 277.689H245.737Z" fill="black"/>
</g>
<path d="M222.768 159.629C222.768 159.629 227.673 204.661 230.372 222.461C233.178 241.025 245.459 283.287 245.459 283.287H253.327C253.327 283.287 246.73 242.082 245.066 223.875C243.253 204.018 240.118 159.615 240.118 159.615L222.768 159.629Z" fill="#31B5A7"/>
<path opacity="0.3" d="M222.768 159.629C222.768 159.629 227.673 204.661 230.372 222.461C233.178 241.025 245.459 283.287 245.459 283.287H253.327C253.327 283.287 246.73 242.082 245.066 223.875C243.253 204.018 240.118 159.615 240.118 159.615L222.768 159.629Z" fill="white"/>
<path d="M254.048 283.601H244.774L243.71 280.645L254.048 280.281V283.601Z" fill="#263238"/>
<path d="M245.53 291.569C245.017 291.61 244.504 291.485 244.067 291.212C243.963 291.132 243.879 291.029 243.821 290.912C243.762 290.794 243.732 290.665 243.731 290.534C243.723 290.462 243.736 290.389 243.769 290.324C243.802 290.259 243.854 290.206 243.917 290.17C244.581 289.777 247.065 290.962 247.344 291.105C247.372 291.117 247.396 291.136 247.413 291.162C247.429 291.187 247.438 291.217 247.437 291.248C247.437 291.275 247.428 291.301 247.411 291.322C247.394 291.343 247.37 291.357 247.344 291.362C246.747 291.489 246.14 291.559 245.53 291.569ZM244.331 290.362C244.245 290.357 244.158 290.374 244.081 290.412C244.055 290.427 244.034 290.449 244.021 290.476C244.008 290.503 244.004 290.533 244.01 290.562C244.011 290.647 244.03 290.731 244.067 290.808C244.104 290.884 244.158 290.952 244.224 291.005C244.624 291.326 245.587 291.376 246.858 291.162C246.064 290.763 245.211 290.493 244.331 290.362Z" fill="#31B5A7"/>
<path d="M247.315 291.362H247.258C246.544 291.041 244.981 289.784 245.002 289.12C245.002 288.963 245.095 288.77 245.473 288.727C245.759 288.703 246.043 288.79 246.266 288.97C246.864 289.592 247.27 290.373 247.437 291.219C247.441 291.242 247.44 291.267 247.432 291.289C247.425 291.312 247.412 291.332 247.394 291.348C247.37 291.36 247.342 291.365 247.315 291.362ZM245.616 288.991H245.537C245.288 288.991 245.28 289.12 245.28 289.149C245.28 289.548 246.33 290.541 247.094 290.969C246.947 290.288 246.607 289.664 246.116 289.17C245.974 289.056 245.798 288.993 245.616 288.991Z" fill="#31B5A7"/>
<path d="M227.345 104.665C227.266 105.129 226.952 105.465 226.631 105.379C226.31 105.294 226.138 104.908 226.224 104.444C226.31 103.98 226.609 103.644 226.938 103.694C227.266 103.744 227.423 104.201 227.345 104.665Z" fill="#263238"/>
<path d="M222.09 103.773C222.011 104.237 221.697 104.572 221.376 104.487C221.054 104.401 220.89 104.023 220.969 103.551C221.047 103.08 221.354 102.752 221.683 102.837C222.011 102.923 222.168 103.309 222.09 103.773Z" fill="#263238"/>
<path d="M221.811 102.887L220.747 102.373C220.747 102.373 221.176 103.344 221.811 102.887Z" fill="#263238"/>
<path d="M223.568 104.887C222.979 105.875 222.259 106.778 221.426 107.571C221.635 107.78 221.887 107.94 222.164 108.043C222.442 108.145 222.738 108.186 223.032 108.164L223.568 104.887Z" fill="#ED893E"/>
<path d="M225.231 110.413C224.992 110.413 224.753 110.392 224.517 110.349C224.499 110.346 224.482 110.34 224.467 110.331C224.451 110.321 224.438 110.309 224.427 110.294C224.416 110.28 224.409 110.263 224.405 110.245C224.401 110.228 224.4 110.209 224.403 110.192C224.41 110.155 224.431 110.122 224.462 110.101C224.493 110.08 224.53 110.071 224.567 110.077C225.143 110.188 225.736 110.161 226.299 110C226.862 109.839 227.379 109.547 227.809 109.149C227.822 109.135 227.837 109.124 227.854 109.117C227.871 109.109 227.89 109.105 227.909 109.105C227.928 109.105 227.946 109.109 227.963 109.117C227.981 109.124 227.996 109.135 228.009 109.149C228.022 109.162 228.032 109.177 228.039 109.193C228.045 109.21 228.049 109.228 228.049 109.246C228.049 109.263 228.045 109.281 228.039 109.298C228.032 109.314 228.022 109.329 228.009 109.342C227.261 110.052 226.262 110.437 225.231 110.413Z" fill="#263238"/>
<path d="M239.461 95.9045C238.791 95.4342 238.03 95.1084 237.227 94.9477C236.577 89.3785 232.114 85.8371 227.138 86.9581C221.497 88.229 219.534 95.2262 223.325 97.611C225.555 98.9736 228.074 99.793 230.679 100.003C230.779 104.622 233.657 108.571 235.677 108.785C241.446 106.486 242.939 98.3535 239.461 95.9045Z" fill="#263238"/>
<path d="M237.362 110.199C236.793 111.165 235.868 111.87 234.785 112.162C233.357 112.526 232.643 111.234 233.085 109.892C233.464 108.685 234.678 107.036 236.113 107.257C236.424 107.314 236.717 107.448 236.964 107.645C237.212 107.843 237.406 108.1 237.53 108.391C237.654 108.683 237.703 109.001 237.674 109.316C237.645 109.632 237.538 109.935 237.362 110.199Z" fill="#FFB573"/>
<path d="M229.637 103.951C229.578 103.951 229.521 103.932 229.473 103.898C229.426 103.863 229.391 103.814 229.373 103.758C228.994 102.538 227.43 102.009 227.416 102.009C227.346 101.986 227.288 101.937 227.255 101.871C227.221 101.806 227.215 101.729 227.238 101.659C227.248 101.624 227.266 101.591 227.289 101.563C227.313 101.535 227.342 101.512 227.374 101.495C227.407 101.478 227.443 101.469 227.479 101.466C227.516 101.464 227.553 101.469 227.588 101.481C227.659 101.481 229.444 102.102 229.901 103.623C229.923 103.693 229.917 103.769 229.884 103.835C229.85 103.9 229.792 103.95 229.722 103.973L229.637 103.951Z" fill="#263238"/>
<path d="M220.926 101.074C220.877 101.074 220.829 101.061 220.787 101.038C220.744 101.014 220.709 100.98 220.683 100.938C220.647 100.874 220.638 100.798 220.658 100.727C220.679 100.656 220.726 100.596 220.79 100.56C221.166 100.332 221.591 100.198 222.03 100.168C222.468 100.138 222.907 100.214 223.311 100.388C223.367 100.426 223.407 100.484 223.424 100.549C223.441 100.615 223.433 100.684 223.403 100.745C223.372 100.805 223.32 100.852 223.257 100.877C223.194 100.902 223.125 100.904 223.061 100.881C222.738 100.749 222.39 100.695 222.043 100.722C221.695 100.749 221.359 100.857 221.062 101.038C221.021 101.063 220.974 101.076 220.926 101.074Z" fill="#263238"/>
<path d="M246.844 130.983C247.558 134.346 248.029 137.652 248.429 141.029C248.851 144.42 249.09 147.83 249.143 151.247C249.143 151.418 249.143 151.775 249.143 152.089C249.143 152.403 249.093 152.66 249.058 152.924C248.972 153.446 248.879 153.931 248.758 154.352C248.529 155.266 248.258 156.116 247.972 156.951C247.401 158.615 246.723 160.193 246.037 161.75C244.641 164.837 243.09 167.851 241.389 170.782L238.705 169.532L240.297 164.834C240.832 163.278 241.346 161.707 241.825 160.143C242.303 158.579 242.767 157.03 243.167 155.502C243.36 154.738 243.524 153.981 243.638 153.267C243.695 152.91 243.738 152.553 243.767 152.268C243.767 152.118 243.767 151.982 243.767 151.861L243.731 151.454C243.603 149.854 243.417 148.248 243.224 146.634L242.553 141.779C242.06 138.552 241.511 135.282 240.961 132.09L246.844 130.983Z" fill="#FFB573"/>
<path d="M244.117 124.179C246.494 124.893 249.35 133.09 249.35 133.09L240.118 139.687C240.118 139.687 236.755 132.854 237.755 129.777C238.797 126.578 241.396 123.351 244.117 124.179Z" fill="#263238"/>
<path d="M218.163 291.569C217.66 291.619 217.155 291.493 216.735 291.212C216.64 291.129 216.567 291.023 216.524 290.905C216.48 290.786 216.467 290.659 216.485 290.534C216.488 290.459 216.511 290.385 216.551 290.322C216.591 290.258 216.647 290.205 216.713 290.17C217.427 289.777 219.762 290.962 220.026 291.105C220.052 291.118 220.072 291.139 220.085 291.165C220.098 291.19 220.102 291.219 220.098 291.248C220.094 291.276 220.081 291.301 220.062 291.322C220.043 291.342 220.018 291.356 219.991 291.362C219.389 291.487 218.777 291.557 218.163 291.569ZM217.12 290.362C217.032 290.357 216.943 290.374 216.863 290.412C216.836 290.427 216.812 290.448 216.796 290.475C216.78 290.501 216.771 290.531 216.77 290.562C216.76 290.643 216.768 290.726 216.795 290.803C216.823 290.88 216.868 290.949 216.928 291.005C217.285 291.326 218.248 291.376 219.541 291.162C218.786 290.758 217.967 290.488 217.12 290.362Z" fill="#31B5A7"/>
<path d="M219.976 291.362H219.912C219.198 291.041 217.834 289.784 217.949 289.12C217.949 288.963 218.084 288.77 218.463 288.727C218.601 288.714 218.74 288.728 218.873 288.77C219.006 288.811 219.128 288.88 219.234 288.97C219.948 289.584 220.105 291.155 220.105 291.219C220.109 291.244 220.106 291.269 220.095 291.292C220.085 291.315 220.069 291.334 220.048 291.348C220.026 291.359 220.001 291.364 219.976 291.362ZM218.584 288.992H218.484C218.234 288.992 218.22 289.12 218.213 289.149C218.148 289.548 219.084 290.541 219.791 290.969C219.745 290.31 219.495 289.681 219.077 289.17C218.941 289.05 218.765 288.986 218.584 288.992Z" fill="#31B5A7"/>
<path d="M227.052 103.78L225.988 103.266C225.988 103.266 226.431 104.244 227.052 103.78Z" fill="#263238"/>
<path d="M240.261 158.237L240.868 160.379C240.954 160.55 240.754 160.714 240.482 160.714H216.042C215.828 160.714 215.657 160.607 215.642 160.479L215.428 158.337C215.428 158.187 215.599 158.065 215.828 158.065H239.904C239.973 158.064 240.041 158.078 240.103 158.108C240.165 158.138 240.219 158.182 240.261 158.237Z" fill="#31B5A7"/>
<path d="M237.048 160.921H237.691C237.819 160.921 237.912 160.857 237.905 160.779L237.605 158.015C237.605 157.937 237.484 157.865 237.355 157.865H236.712C236.584 157.865 236.484 157.937 236.491 158.015L236.798 160.779C236.791 160.857 236.905 160.921 237.048 160.921Z" fill="#31B5A7"/>
<g opacity="0.3">
<path opacity="0.3" d="M237.048 160.921H237.691C237.819 160.921 237.912 160.857 237.905 160.779L237.605 158.015C237.605 157.937 237.484 157.865 237.355 157.865H236.712C236.584 157.865 236.484 157.937 236.491 158.015L236.798 160.779C236.791 160.857 236.905 160.921 237.048 160.921Z" fill="white"/>
</g>
<path d="M217.856 160.921H218.498C218.627 160.921 218.727 160.857 218.72 160.779L218.413 158.015C218.413 157.937 218.291 157.865 218.163 157.865H217.52C217.392 157.865 217.292 157.937 217.306 158.015L217.606 160.779C217.613 160.857 217.727 160.921 217.856 160.921Z" fill="#31B5A7"/>
<path opacity="0.3" d="M217.856 160.921H218.498C218.627 160.921 218.727 160.857 218.72 160.779L218.413 158.015C218.413 157.937 218.291 157.865 218.163 157.865H217.52C217.392 157.865 217.292 157.937 217.306 158.015L217.606 160.779C217.613 160.857 217.727 160.921 217.856 160.921Z" fill="white"/>
<path d="M227.445 160.921H228.087C228.216 160.921 228.316 160.857 228.301 160.779L228.002 158.015C228.002 157.937 227.88 157.865 227.752 157.865H227.109C226.981 157.865 226.881 157.937 226.895 158.015L227.195 160.779C227.202 160.857 227.316 160.921 227.445 160.921Z" fill="#31B5A7"/>
<path opacity="0.3" d="M227.445 160.921H228.087C228.216 160.921 228.316 160.857 228.301 160.779L228.002 158.015C228.002 157.937 227.88 157.865 227.752 157.865H227.109C226.981 157.865 226.881 157.937 226.895 158.015L227.195 160.779C227.202 160.857 227.316 160.921 227.445 160.921Z" fill="white"/>
<path d="M238.812 169.004L234.278 173.402L240.19 173.995C240.19 173.995 242.332 170.903 241.211 168.747L238.812 169.004Z" fill="#FFB573"/>
<path d="M233.607 178.272L238.59 178.5L240.19 173.995L234.278 173.402L233.607 178.272Z" fill="#FFB573"/>
<path d="M118.024 292.104C118.587 292.17 119.155 292.031 119.624 291.712C119.689 291.639 119.73 291.548 119.743 291.451C119.756 291.355 119.739 291.256 119.695 291.169C119.663 291.097 119.614 291.033 119.554 290.982C119.493 290.932 119.422 290.895 119.345 290.876C118.503 290.641 116.489 291.683 116.432 291.733C116.408 291.744 116.387 291.763 116.373 291.786C116.359 291.808 116.352 291.835 116.353 291.862C116.355 291.886 116.364 291.908 116.379 291.926C116.395 291.945 116.416 291.957 116.439 291.962C116.962 292.056 117.493 292.104 118.024 292.104ZM119.01 291.091C119.088 291.079 119.167 291.079 119.245 291.091C119.292 291.1 119.336 291.121 119.373 291.15C119.41 291.18 119.44 291.218 119.459 291.262C119.524 291.419 119.459 291.498 119.459 291.54C119.167 291.876 117.839 291.883 116.882 291.747C117.547 291.406 118.267 291.183 119.01 291.091Z" fill="#31B5A7"/>
<path d="M116.461 291.962H116.518C117.189 291.676 118.61 290.534 118.603 289.948C118.603 289.805 118.524 289.634 118.188 289.598C117.932 289.581 117.678 289.657 117.474 289.813C116.924 290.37 116.541 291.07 116.368 291.833C116.361 291.854 116.36 291.876 116.367 291.896C116.373 291.917 116.386 291.935 116.403 291.947C116.421 291.958 116.44 291.963 116.461 291.962ZM118.053 289.82H118.131C118.345 289.82 118.353 289.927 118.353 289.955C118.353 290.312 117.374 291.205 116.668 291.59C116.826 290.979 117.147 290.421 117.596 289.977C117.729 289.882 117.889 289.832 118.053 289.834V289.82Z" fill="#31B5A7"/>
<path d="M110.713 291.84H115.961L118.267 279.688H113.019L110.713 291.84Z" fill="#B55B52"/>
<path d="M116.011 291.234H110.299C110.19 291.237 110.084 291.273 109.995 291.337C109.906 291.4 109.838 291.489 109.799 291.591L108.078 296.253C108.03 296.354 108.009 296.466 108.017 296.578C108.025 296.689 108.061 296.797 108.123 296.89C108.185 296.984 108.27 297.06 108.369 297.111C108.469 297.161 108.58 297.186 108.692 297.181C110.77 297.181 113.769 297.031 116.368 297.031C119.402 297.031 119.124 297.195 122.687 297.195C124.829 297.195 125.757 295.018 124.886 294.818C120.916 293.925 120.452 293.825 117.232 291.64C116.876 291.383 116.45 291.241 116.011 291.234Z" fill="#263238"/>
<path opacity="0.2" d="M118.267 279.695L117.075 285.957H111.827L113.019 279.695H118.267Z" fill="black"/>
<path d="M118.66 160.971L122.094 164.577L116.553 166.512C116.553 166.512 114.54 163.57 116.089 161.557L118.66 160.971Z" fill="#B55B52"/>
<path d="M123.122 169.618L117.639 170.417L116.553 166.512L122.094 164.577L123.122 169.618Z" fill="#B55B52"/>
<path d="M98.075 190.895L124.836 192.066C125.465 192.076 126.077 191.868 126.571 191.477C127.064 191.087 127.407 190.538 127.542 189.924L130.741 173.573C130.807 173.296 130.81 173.008 130.75 172.73C130.69 172.451 130.568 172.19 130.393 171.965C130.218 171.74 129.995 171.557 129.74 171.43C129.485 171.303 129.205 171.235 128.92 171.231L102.159 170.053C101.531 170.045 100.92 170.254 100.429 170.644C99.9369 171.034 99.5949 171.582 99.4602 172.195L96.2543 188.546C96.1866 188.823 96.1824 189.113 96.242 189.392C96.3015 189.671 96.4234 189.934 96.5983 190.159C96.7733 190.385 96.997 190.569 97.2526 190.696C97.5083 190.823 97.7894 190.891 98.075 190.895Z" fill="#263238"/>
<path d="M99.9099 195.922L132.968 197.35C133.718 197.378 134.45 197.118 135.013 196.622C135.577 196.127 135.928 195.434 135.995 194.686L137.745 174.394C137.78 174.034 137.741 173.67 137.63 173.325C137.519 172.98 137.339 172.662 137.1 172.389C136.861 172.117 136.569 171.896 136.241 171.741C135.914 171.587 135.558 171.5 135.196 171.489L102.145 170.061C101.395 170.035 100.664 170.297 100.1 170.791C99.5365 171.286 99.1825 171.977 99.1103 172.724L97.361 193.016C97.3267 193.376 97.3664 193.74 97.4777 194.084C97.5891 194.428 97.7696 194.747 98.0083 195.019C98.247 195.291 98.5389 195.511 98.8659 195.667C99.1929 195.822 99.5482 195.909 99.9099 195.922Z" fill="#31B5A7"/>
<path opacity="0.2" d="M99.9099 195.922L132.968 197.35C133.718 197.378 134.45 197.118 135.013 196.622C135.577 196.127 135.928 195.434 135.995 194.686L137.745 174.394C137.78 174.034 137.741 173.67 137.63 173.325C137.519 172.98 137.339 172.662 137.1 172.389C136.861 172.117 136.569 171.896 136.241 171.741C135.914 171.587 135.558 171.5 135.196 171.489L102.145 170.061C101.395 170.035 100.664 170.297 100.1 170.791C99.5365 171.286 99.1825 171.977 99.1103 172.724L97.361 193.016C97.3267 193.376 97.3664 193.74 97.4777 194.084C97.5891 194.428 97.7696 194.747 98.0083 195.019C98.247 195.291 98.5389 195.511 98.8659 195.667C99.1929 195.822 99.5482 195.909 99.9099 195.922Z" fill="black"/>
<path d="M124.165 176.865H124.079L114.483 176.444C114.233 176.435 113.987 176.375 113.761 176.268C113.535 176.161 113.333 176.009 113.168 175.821C113.003 175.633 112.878 175.414 112.8 175.176C112.723 174.938 112.696 174.686 112.719 174.437L113.098 170.061C113.191 169.166 113.618 168.339 114.295 167.746C114.971 167.153 115.847 166.837 116.746 166.862L123.172 167.14C123.637 167.159 124.092 167.271 124.512 167.471C124.931 167.672 125.306 167.955 125.612 168.304C125.919 168.653 126.151 169.061 126.295 169.503C126.439 169.945 126.491 170.412 126.449 170.875L126.085 175.116C126.038 175.593 125.815 176.036 125.46 176.359C125.106 176.682 124.644 176.862 124.165 176.865ZM114.883 174.309L123.958 174.709L124.307 170.682C124.327 170.505 124.31 170.327 124.258 170.158C124.205 169.988 124.118 169.832 124.002 169.697C123.886 169.563 123.744 169.455 123.584 169.378C123.424 169.302 123.249 169.26 123.072 169.254L116.646 168.968C116.296 168.965 115.958 169.091 115.695 169.321C115.431 169.552 115.262 169.871 115.218 170.218L114.883 174.309Z" fill="#31B5A7"/>
<path d="M136.503 197.528L103.451 196.1C102.696 196.056 101.985 195.731 101.456 195.19C100.928 194.648 100.621 193.929 100.595 193.173L100.153 172.788C100.138 172.428 100.199 172.069 100.332 171.735C100.464 171.4 100.666 171.096 100.923 170.844C101.18 170.592 101.486 170.396 101.824 170.27C102.161 170.144 102.521 170.089 102.88 170.111L135.938 171.539C136.694 171.581 137.407 171.905 137.936 172.447C138.464 172.989 138.771 173.709 138.794 174.466L139.23 194.851C139.243 195.21 139.182 195.568 139.049 195.903C138.916 196.237 138.715 196.54 138.458 196.792C138.201 197.044 137.895 197.24 137.558 197.366C137.221 197.493 136.862 197.548 136.503 197.528Z" fill="#31B5A7"/>
<path d="M126.714 121.037C126.364 121.751 125.95 122.565 125.578 123.343C125.207 124.122 124.864 124.95 124.472 125.757C123.758 127.378 123.044 129.005 122.43 130.641C121.815 132.276 121.244 133.925 120.737 135.56C120.502 136.381 120.259 137.195 120.08 138.002C119.973 138.409 119.881 138.816 119.809 139.209L119.695 139.808C119.652 140.015 119.609 140.222 119.595 140.365C119.595 140.679 119.509 140.965 119.495 141.386C119.481 141.808 119.445 142.15 119.445 142.586C119.445 143.421 119.445 144.299 119.445 145.178C119.481 146.955 119.588 148.748 119.695 150.59C119.902 154.238 120.209 157.944 120.495 161.6L113.954 162.656C113.069 158.936 112.369 155.252 111.741 151.475C111.441 149.59 111.184 147.691 110.97 145.763C110.87 144.778 110.77 143.8 110.72 142.764C110.677 142.272 110.67 141.715 110.663 141.172C110.656 140.629 110.663 140.015 110.727 139.401C110.741 139.122 110.77 138.843 110.813 138.566L110.913 137.781C110.97 137.252 111.048 136.738 111.141 136.238C111.313 135.21 111.527 134.218 111.741 133.225C112.205 131.262 112.733 129.327 113.362 127.456C113.99 125.585 114.654 123.729 115.397 121.915C115.768 121.009 116.111 120.109 116.553 119.209C116.996 118.31 117.346 117.453 117.838 116.468L126.714 121.037Z" fill="#31B5A7"/>
<path d="M141.022 158.415C141.022 158.415 135.974 197.635 133.054 213.629C130.012 230.265 119.238 284.743 119.238 284.743H110.32C110.32 284.743 114.847 231.236 116.853 214.9C119.045 197.05 122.565 158.415 122.565 158.415H141.022Z" fill="#263238"/>
<path d="M121.437 281.202C121.48 281.202 120.395 284.893 120.395 284.893H109.585L109.777 281.602L121.437 281.202Z" fill="#31B5A7"/>
<path d="M145.32 93.2841C145.32 93.7267 145.556 94.0909 145.849 94.0909C146.142 94.0909 146.37 93.7267 146.37 93.2841C146.37 92.8414 146.134 92.4844 145.849 92.4844C145.563 92.4844 145.32 92.82 145.32 93.2841Z" fill="#263238"/>
<path d="M145.513 94.0909C146.049 95.4494 146.77 96.7275 147.655 97.8894C147.349 98.1088 146.999 98.2584 146.629 98.3275C146.259 98.3966 145.878 98.3835 145.513 98.2892V94.0909Z" fill="#A02724"/>
<path d="M143.75 90.8208C143.803 90.8211 143.855 90.8062 143.9 90.7779C144.159 90.5767 144.463 90.4406 144.786 90.381C145.109 90.3213 145.442 90.3399 145.756 90.4352C145.82 90.4587 145.891 90.4561 145.954 90.4282C146.017 90.4002 146.066 90.3489 146.092 90.2853C146.104 90.2534 146.11 90.2194 146.109 90.1852C146.109 90.1509 146.101 90.1172 146.087 90.0859C146.073 90.0547 146.053 90.0265 146.028 90.0031C146.003 89.9797 145.974 89.9616 145.942 89.9497C145.547 89.8224 145.127 89.7923 144.718 89.8619C144.309 89.9315 143.923 90.0988 143.593 90.3495C143.537 90.3908 143.501 90.452 143.49 90.52C143.479 90.588 143.496 90.6575 143.535 90.7137C143.56 90.7476 143.592 90.775 143.629 90.7937C143.667 90.8123 143.708 90.8216 143.75 90.8208Z" fill="#263238"/>
<path d="M131.262 98.1893C131.976 102.031 132.761 109.063 130.076 111.62C130.076 111.62 131.126 115.511 138.259 115.511C146.113 115.511 142 111.62 142 111.62C137.716 110.599 137.838 107.428 138.58 104.444L131.262 98.1893Z" fill="#B55B52"/>
<path d="M129.048 112.955C128.491 111.727 127.87 110.313 129.148 109.87C130.576 109.385 138.266 108.892 140.922 109.806C141.272 109.903 141.6 110.069 141.886 110.293C142.172 110.518 142.41 110.797 142.588 111.115C142.765 111.432 142.878 111.781 142.919 112.143C142.96 112.504 142.93 112.87 142.828 113.219L129.048 112.955Z" fill="#263238"/>
<path d="M119.745 113.126C115.154 115.211 112.298 131.019 112.298 131.019L121.301 133.875C123.07 129.701 124.54 125.406 125.7 121.023C127.335 114.426 124.443 110.998 119.745 113.126Z" fill="#31B5A7"/>
<path d="M175.644 152.268H181.185L180.214 158.894C180.214 158.894 175.872 158.736 173.902 155.466L175.644 152.268Z" fill="#B55B52"/>
<path d="M186.397 154.574L183.612 159.693L180.185 158.908L181.156 152.282L186.397 154.574Z" fill="#B55B52"/>
<path d="M130.505 92.3416C130.84 97.7966 130.762 101.01 133.518 103.808C137.659 108.021 144.392 105.522 145.692 100.074C146.87 95.1762 146.12 87.0794 140.779 84.9089C139.605 84.4248 138.326 84.2491 137.064 84.3983C135.802 84.5475 134.6 85.0167 133.57 85.7613C132.541 86.506 131.719 87.5014 131.182 88.6531C130.646 89.8048 130.413 91.0745 130.505 92.3416Z" fill="#B55B52"/>
<path d="M129.877 99.7601C129.877 99.7601 124.936 92.3488 126.007 87.515C126.985 83.0953 136.959 81.5174 141.101 81.9601C145.499 82.4384 147.212 84.3305 144.799 88.1433C143.375 88.8182 141.878 89.3262 140.337 89.657C140.337 89.657 142.786 92.6629 142.807 94.655C142.093 95.0263 139.887 95.9116 139.887 95.9116C139.887 95.9116 136.759 103.63 136.667 103.616C135.46 103.473 132.668 103.43 131.669 103.808C130.96 102.511 130.361 101.157 129.877 99.7601Z" fill="#263238"/>
<path d="M137.723 95.1119C138.083 96.4167 138.861 97.5678 139.937 98.3892C141.365 99.4602 142.429 98.4463 142.322 96.8398C142.229 95.4118 141.372 93.1056 139.801 92.6558C138.23 92.2059 137.309 93.534 137.723 95.1119Z" fill="#B55B52"/>
<path opacity="0.3" d="M137.238 173.074C130.219 174.702 131.526 200.091 132.875 214.564C132.94 214.236 132.99 213.929 133.047 213.629C134.789 204.104 137.281 186.354 139.016 173.545C138.476 173.233 137.862 173.07 137.238 173.074Z" fill="black"/>
<path d="M144.028 292.104C144.699 292.104 145.349 292.012 145.57 291.712C145.627 291.633 145.658 291.538 145.658 291.44C145.658 291.343 145.627 291.248 145.57 291.169C145.528 291.096 145.472 291.033 145.404 290.982C145.337 290.932 145.26 290.896 145.178 290.876C144.307 290.641 142.472 291.683 142.393 291.733C142.371 291.746 142.354 291.765 142.344 291.788C142.334 291.811 142.331 291.837 142.336 291.862C142.341 291.886 142.353 291.909 142.371 291.927C142.389 291.944 142.411 291.957 142.436 291.962C142.962 292.054 143.494 292.102 144.028 292.104ZM144.863 291.091C144.942 291.079 145.021 291.079 145.099 291.091C145.149 291.101 145.197 291.121 145.239 291.15C145.281 291.18 145.316 291.218 145.342 291.262C145.435 291.419 145.399 291.498 145.342 291.54C145.099 291.876 143.771 291.883 142.793 291.747C143.434 291.396 144.137 291.173 144.863 291.091Z" fill="#31B5A7"/>
<path d="M142.443 291.962H142.493C143.128 291.676 144.385 290.534 144.285 289.948C144.285 289.805 144.164 289.634 143.821 289.598C143.694 289.583 143.564 289.594 143.441 289.631C143.319 289.668 143.205 289.73 143.107 289.813C142.436 290.362 142.3 291.776 142.293 291.833C142.29 291.855 142.293 291.877 142.302 291.897C142.311 291.917 142.325 291.935 142.343 291.948C142.373 291.965 142.409 291.97 142.443 291.962ZM143.721 289.82H143.799C144.021 289.82 144.035 289.927 144.042 289.955C144.099 290.312 143.243 291.205 142.614 291.591C142.68 290.992 142.929 290.428 143.328 289.977C143.44 289.888 143.578 289.838 143.721 289.834V289.82Z" fill="#31B5A7"/>
<path d="M136.674 291.84H141.922L142.443 279.688H137.202L136.674 291.84Z" fill="#B55B52"/>
<path d="M141.886 291.234H136.174C136.07 291.234 135.969 291.269 135.887 291.334C135.806 291.399 135.748 291.489 135.724 291.591L134.689 296.253C134.664 296.365 134.665 296.482 134.692 296.594C134.719 296.706 134.77 296.811 134.843 296.9C134.916 296.989 135.008 297.061 135.112 297.11C135.217 297.158 135.331 297.183 135.446 297.181C137.509 297.181 140.494 297.031 143.093 297.031C146.134 297.031 148.755 297.195 152.318 297.195C154.46 297.195 155.067 295.018 154.167 294.818C150.061 293.925 146.713 293.825 143.164 291.64C142.785 291.388 142.342 291.247 141.886 291.234Z" fill="#263238"/>
<path opacity="0.2" d="M142.443 279.695L142.172 285.957H136.924L137.195 279.695H142.443Z" fill="black"/>
<path d="M150.383 158.415C150.383 158.415 151.097 197.635 150.533 213.629C149.94 230.265 144.107 284.743 144.107 284.743H135.246C135.246 284.743 134.917 231.236 134.532 214.9C134.096 197.05 131.947 158.415 131.947 158.415H150.383Z" fill="#263238"/>
<path d="M145.842 281.202C145.877 281.202 145.335 284.893 145.335 284.893H134.532L134.232 281.602L145.842 281.202Z" fill="#31B5A7"/>
<path d="M150.068 113.076C150.068 113.076 156.366 122.672 151.09 161.707H121.458C121.266 157.423 124.843 133.097 120.687 112.805C123.788 112.208 126.924 111.812 130.076 111.62C134.048 111.391 138.029 111.391 142 111.62C144.724 111.894 147.421 112.381 150.068 113.076Z" fill="#31B5A7"/>
<path opacity="0.2" d="M153.196 133.047L146.984 122.751C146.984 122.751 149.319 137.345 152.896 143.928C153.139 139.808 153.224 136.196 153.196 133.047Z" fill="black"/>
<path d="M155.845 120.587C156.866 123.85 157.987 127.192 159.136 130.462C160.286 133.732 161.485 136.981 162.799 140.101L163.299 141.258C163.342 141.344 163.38 141.432 163.413 141.522C163.442 141.588 163.476 141.653 163.513 141.715C163.83 142.188 164.199 142.623 164.613 143.014C165.739 144.063 166.95 145.019 168.233 145.87C169.575 146.798 170.996 147.698 172.459 148.548C173.923 149.397 175.437 150.268 176.879 151.018L174.102 157.501C170.587 156.211 167.176 154.655 163.899 152.846C162.145 151.867 160.473 150.747 158.901 149.497C157.963 148.742 157.113 147.885 156.366 146.941C156.152 146.634 155.945 146.363 155.738 146.02C155.531 145.677 155.302 145.249 155.238 145.106L154.609 143.857C152.974 140.529 151.511 137.202 150.161 133.861C148.812 130.519 147.555 127.156 146.349 123.679L155.845 120.587Z" fill="#31B5A7"/>
<path d="M143.071 115.447C141.236 120.116 152.396 138.916 152.396 138.916L159.657 131.969C159.657 131.969 158.072 126.064 155.959 118.952C153.874 111.962 144.821 110.984 143.071 115.447Z" fill="#31B5A7"/>
<circle cx="179" cy="20" r="20" fill="#31B5A7"/>
<path d="M178.169 28.24C177.305 28.24 176.409 28.128 175.481 27.904C174.553 27.68 173.745 27.344 173.057 26.896C172.657 26.624 172.417 26.32 172.337 25.984C172.257 25.632 172.297 25.32 172.457 25.048C172.617 24.76 172.857 24.568 173.177 24.472C173.513 24.376 173.889 24.44 174.305 24.664C174.961 25.016 175.593 25.272 176.201 25.432C176.809 25.576 177.433 25.648 178.073 25.648C180.233 25.648 181.313 24.8 181.313 23.104C181.313 22.304 181.041 21.712 180.497 21.328C179.969 20.928 179.193 20.728 178.169 20.728H176.633C176.185 20.728 175.841 20.616 175.601 20.392C175.377 20.168 175.265 19.856 175.265 19.456C175.265 19.056 175.377 18.744 175.601 18.52C175.841 18.296 176.185 18.184 176.633 18.184H177.881C178.777 18.184 179.489 17.968 180.017 17.536C180.545 17.088 180.809 16.472 180.809 15.688C180.809 14.952 180.561 14.392 180.065 14.008C179.585 13.624 178.881 13.432 177.953 13.432C177.361 13.432 176.801 13.504 176.273 13.648C175.761 13.776 175.193 14.024 174.569 14.392C174.201 14.616 173.865 14.68 173.561 14.584C173.257 14.472 173.017 14.28 172.841 14.008C172.681 13.72 172.633 13.408 172.697 13.072C172.761 12.736 172.985 12.448 173.369 12.208C174.777 11.296 176.393 10.84 178.217 10.84C179.977 10.84 181.345 11.24 182.321 12.04C183.297 12.824 183.785 13.92 183.785 15.328C183.785 16.24 183.553 17.04 183.089 17.728C182.625 18.416 181.993 18.912 181.193 19.216C182.169 19.488 182.929 19.992 183.473 20.728C184.017 21.448 184.289 22.328 184.289 23.368C184.289 24.872 183.745 26.064 182.657 26.944C181.569 27.808 180.073 28.24 178.169 28.24Z" fill="white"/>
</svg>
